<svg xmlns="http://www.w3.org/2000/svg" viewBox="0 0 500 500"><g id="freepik--Floor--inject-7"><ellipse id="freepik--floor--inject-7" cx="250" cy="351.53" rx="240.5" ry="138.85" style="fill:#f5f5f5"></ellipse></g><g id="freepik--Shadows--inject-7"><path id="freepik--Shadow--inject-7" d="M291.66,406.7l20.56-11.87a15,15,0,0,1-4.59-1.66,9.55,9.55,0,0,1-5.08-8.33c0-4.35,3-8.58,8.23-11.6a29.66,29.66,0,0,1,14.35-3.86,17.48,17.48,0,0,1,8.71,2,9.6,9.6,0,0,1,5.08,8l24.16-14,67.77,33.12c2.84,1.39,2.93,3.79.19,5.38l-30.85,17.81a13,13,0,0,1-6.51,1.66,13.58,13.58,0,0,1-6.34-1.51c.07.19.12.38.17.57.93,3.47-.7,7-4.16,9L359,445.56a11,11,0,0,1-9.92,0l-57.38-33.13C288.92,410.85,288.92,408.28,291.66,406.7Z" style="fill:#e0e0e0"></path><ellipse id="freepik--shadow--inject-7" cx="355.33" cy="312.68" rx="81.83" ry="47.24" style="fill:#e0e0e0"></ellipse></g><g id="freepik--Plants--inject-7"><g id="freepik--plants--inject-7"><path d="M80.35,340.93l-12.06,7c-.69-35.38-23.65-61.3-34.72-75-11.26-14,4.31-22.31,17.42-16.19s23.76,21.83,28.16,42.23C82.9,316.37,81,335.7,80.35,340.93Z" style="fill:#315467"></path><path d="M80.35,340.93l-12.06,7c-.69-35.38-23.65-61.3-34.72-75-11.26-14,4.31-22.31,17.42-16.19s23.76,21.83,28.16,42.23C82.9,316.37,81,335.7,80.35,340.93Z" style="fill:#fff;opacity:0.30000000000000004"></path><path d="M75.23,339.85l.16,0a.78.78,0,0,0,.75-.8c-1.23-44.54-16.07-66.85-33.21-78.19a.77.77,0,1,0-.85,1.28c16.91,11.19,31.31,33,32.52,77A.76.76,0,0,0,75.23,339.85Z" style="fill:#fff"></path><path d="M15.57,300.58c.26,2.46,2.24,4.35,4.14,5.94s4,3.31,4.49,5.73c1,4.89-4.75,9.4-3.5,14.24a7.77,7.77,0,0,0,4.09,4.56c1.53.83,3.19,1.37,4.79,2.05a21.6,21.6,0,0,0,2.41.58c2.38.41,4.87,1.1,6.58,2.94,2.67,2.9,2.33,7.36,3.28,11.18,1.14,4.59,3.86,7.28,10.1,9.46l21.37-12.11c5.33-5.43,7.2-14.71,2.3-21-2.94-3.79-8.46-4.27-11.23-8.05-2.5-3.4-1-8.31-2.59-12.23s-5.59-5.28-9.42-6-7.91.92-11.65-.45-7.22-3.57-11.1-4.54-8-.61-11.19,1.87A6.88,6.88,0,0,0,15.57,300.58Z" style="fill:#315467"></path><path d="M15.57,300.58c.26,2.46,2.24,4.35,4.14,5.94s4,3.31,4.49,5.73c1,4.89-4.75,9.4-3.5,14.24a7.77,7.77,0,0,0,4.09,4.56c1.53.83,3.19,1.37,4.79,2.05a21.6,21.6,0,0,0,2.41.58c2.38.41,4.87,1.1,6.58,2.94,2.67,2.9,2.33,7.36,3.28,11.18,1.14,4.59,3.86,7.28,10.1,9.46l21.37-12.11c5.33-5.43,7.2-14.71,2.3-21-2.94-3.79-8.46-4.27-11.23-8.05-2.5-3.4-1-8.31-2.59-12.23s-5.59-5.28-9.42-6-7.91.92-11.65-.45-7.22-3.57-11.1-4.54-8-.61-11.19,1.87A6.88,6.88,0,0,0,15.57,300.58Z" style="fill:#fff;opacity:0.6000000000000001"></path><path d="M55.41,319.86a.76.76,0,0,0-.17-.23c-10-14.23-25.79-21-31.11-22.18a.55.55,0,0,0-.66.42.55.55,0,0,0,.42.66c5,1.13,19.66,7.38,29.5,20.44a30.71,30.71,0,0,0-24.5,2.13.55.55,0,0,0-.17.77.53.53,0,0,0,.45.25.48.48,0,0,0,.32-.09,29.67,29.67,0,0,1,25-1.5,46.64,46.64,0,0,1,8.36,28.72.55.55,0,0,0,.49.57h.05a.56.56,0,0,0,.57-.54A47.75,47.75,0,0,0,55.41,319.86Z" style="fill:#fff"></path></g><g id="freepik--plants--inject-7"><path d="M456.87,337.81c-3.78,4.05-9.3,9.55-14.71,15.64-8.09,9.1-15.92,19.51-17.18,28.27l-.25.86h0l-3.78,13-.69,3.87-10.49-6.08c.75-12.75,1.9-30.43,9.57-48.33,7.08-16.51,25.43-32.11,35.84-30.73C464.88,315.61,466.29,327.71,456.87,337.81Z" style="fill:#315467"></path><path d="M456.87,337.81c-3.78,4.05-9.3,9.55-14.71,15.64-8.09,9.1-15.92,19.51-17.18,28.27l-.25.86h0l-3.78,13-.69,3.87-10.49-6.08c.75-12.75,1.9-30.43,9.57-48.33,7.08-16.51,25.43-32.11,35.84-30.73C464.88,315.61,466.29,327.71,456.87,337.81Z" style="fill:#fff;opacity:0.30000000000000004"></path><path d="M415.49,389.11a.65.65,0,0,0,.52-.55c3.57-32.84,23.66-59.14,39.53-66.62a.62.62,0,1,0-.53-1.13c-16.13,7.6-36.63,34.33-40.25,67.61a.62.62,0,0,0,.55.69Z" style="fill:#fff"></path><path d="M468.17,366.69c-3.18,5.6-16.57,8.7-27.24,15.78-9.63,6.4-15.66,14.24-17.12,19h0l-3.36-1.93-2.9-1.68c6.26-22.45,19.93-34.89,30-40.93a22.89,22.89,0,0,1,9.69-2.92C468.12,353.66,472,360,468.17,366.69Z" style="fill:#315467"></path><path d="M468.17,366.69c-3.18,5.6-16.57,8.7-27.24,15.78-9.63,6.4-15.65,14.24-17.12,19l-3.37-1.94-2.9-1.68c6.26-22.45,19.93-34.89,30-40.93a22.89,22.89,0,0,1,9.69-2.92C468.12,353.66,472,360,468.17,366.69Z" style="fill:#fff;opacity:0.6000000000000001"></path><path d="M421.8,396.41a.61.61,0,0,0,.55-.4c9.43-24.91,28.71-33.37,37.6-34.36a.63.63,0,0,0,.55-.69.61.61,0,0,0-.69-.55c-9.82,1.09-29,9.73-38.63,35.15a.63.63,0,0,0,.36.81A.61.61,0,0,0,421.8,396.41Z" style="fill:#fff"></path></g></g><g id="freepik--Character--inject-7"><g id="freepik--character--inject-7"><g id="freepik--Bottom--inject-7"><path d="M344,306.1,331.9,293.84l-12.79,14.39,21.44,15.42S353,320.33,353.28,315Z" style="fill:#ffa8a7"></path><path d="M343.17,305.3l.64.65s1.34,3.76-2.61,9-7.1,4.06-7.1,4.06l-1.64-1.18s-1.21.87,1.11,2.93,7.47,5.27,9.77,7.35,6.56,6,10.11,9.64,7.16,7.74,16.31,6.65c10.06-1.19,11.34-10.19,5.18-16.32-5.86-5.83-8.08-5.83-14.27-9.9s-13.53-10.85-15.25-12.36S343.17,305.3,343.17,305.3Z" style="fill:#37474f"></path><path d="M374.94,328.08a38.47,38.47,0,0,0-5-4.32c-7.41,1.22-16.5,8.23-15.15,15.34,3.2,3.24,7,6.26,15,5.3C379.82,343.21,381.1,334.21,374.94,328.08Z" style="fill:#455a64"></path><path d="M337.08,298.2l2.85,3.11a17.84,17.84,0,0,1-4.52,8.65c-4,4.43-7,5.65-7,5.65l-6.67-4.83Z" style="fill:#263238"></path><path d="M356.5,258.26s-38.57-3.24-53.29-.14c-16,3.37-17.47,11.95-14.79,21.94,3.05,11.42,24.39,27,32.45,32.52a5.38,5.38,0,0,0,6.13-.21c5.67-3.83,8.93-7.72,11-13.12a2.75,2.75,0,0,0-.49-2.78l-1.63-1.89,15.52,3.93,12.32-5.31Z" style="fill:#455a64"></path><path d="M327.92,281.13c4.89,5.47,10.28,11.68,12.31,14.55l-4.35-1.1c-7.28-9.48-11-17.7-22.6-21.64C313.28,272.94,320.65,273,327.92,281.13Z" style="fill:#37474f"></path><polygon points="337.11 305.53 325.67 306.68 318.81 307.19 319.18 322.72 339.93 323.54 337.11 305.53" style="fill:#ffa8a7"></polygon><path d="M338.16,304.92l-5.28.87s-2.51,2.61-2.08,9.13c.41,6.33,2.69,8.87,2.69,8.87l4.64.13Z" style="fill:#37474f"></path><path d="M328.9,306.35l-1.08.11s-3.46,1.84-4.08,8.37,2.71,8.18,2.71,8.18l1.85.07s.24,1.24-2.86,1.2-9.07-1.17-12.17-1.18-8.87,0-14,.27-10.5.87-16.52-6.11c-6.61-7.67-1.47-15.17,7.21-15.53,8.25-.35,9.9,1.15,17.21,2.34s17.31,1.13,19.59,1.18S328.9,306.35,328.9,306.35Z" style="fill:#37474f"></path><path d="M290,301.73c-8.68.36-13.82,7.86-7.21,15.53,4.53,5.26,8.71,6.23,12.68,6.27,4-2.58,4-17.26,2.49-21.39A35.06,35.06,0,0,0,290,301.73Z" style="fill:#455a64"></path><path d="M353.94,261.43l64.91,15.19s3,20.81-1.88,33.61-18.37,16.1-24.57,16.1c-7.48,0-17.78-4.67-17.78-4.67s-2.23,1-9.94,2.26c-3.48.58-14.85,1.12-20,1.42s-6.87-.19-7.66-1.25c-1.65-2.24-2.6-5.12-2.6-11.09,0-2.2,1.08-7.87,2.84-9.29l25-9.87Z" style="fill:#455a64"></path><path d="M387.29,322.24c5.55.72,19.19-.71,24-11.2,4.73-10.26,1.93-25.43.88-36l1.78.41,4.87,1.14h0s3,20.81-1.88,33.61-18.37,16.1-24.57,16.1c-7.48,0-17.78-4.67-17.78-4.67a12.21,12.21,0,0,0,5.24-5.61s-.63,3.35-1.72,4.53C379.85,321.3,383.59,321.75,387.29,322.24Z" style="fill:#37474f"></path><path d="M350.83,298.36s4.26-1.64,6.5-2.52,8.54-3.33,14.83-3c11.24.63,25.95,2.48,25.95,2.48s-17.86-4-24.13-5.06-9.06-.43-15.67,2.1c-4.46,1.72-11.86,4.86-11.86,4.86Z" style="fill:#37474f"></path><path d="M358.75,293.38s-4.55-2.24-5.64-12.25a19.34,19.34,0,0,0,2.62,14.55Z" style="fill:#37474f"></path></g><g id="freepik--Top--inject-7"><g id="freepik--Chest--inject-7"><path d="M359.14,201.58c3,.86,4.89,7.21,4.88,13.84,0,17-.1,22.2-1.6,31.42-.86,5.22-2.19,8.89-6.76,10.16-4.72,1.32-9.12,1.95-19.31,3.55-2,.3-11.62,1.13-13.42,1.95-1.43.65-1.73,2.27-4.45,4-1.67,1.06-5,1.76-6.79,2.32-2.35.74-6.85,3.59-8.78,5-2.52,1.81-3.35,2-4.52,1.7a1.53,1.53,0,0,1-.88-.57,3.86,3.86,0,0,1-3.31,1.17c-1.08-.27-1.35-.74-2-1.59a2.24,2.24,0,0,1-2.44-1.61,5.16,5.16,0,0,1,.09-3c-1.57-.61-1.81-1.68-1.52-3.09a14.32,14.32,0,0,1,3.49-6.07,24.12,24.12,0,0,1,6-4.34c2-1.15,4.4-2.15,3.39-2.25a27.22,27.22,0,0,1-5.39-.88c-1.51-.57-3.06-1.54-2.94-3.53.08-1.33.82-1.26,3.54-1.18A61,61,0,0,0,304,248a46.35,46.35,0,0,1,10.14.18c5.06.5,19.35-4.9,27.75-7.41,0,0,2.38-20.6,3.49-25.68S349.08,204.67,359.14,201.58Z" style="fill:#ffa8a7"></path><path d="M359.46,201.44c-4.12,1.44-12.72,4.76-14.51,14s-3.37,24.94-3.37,24.94l-9.68,3.51s2.81.77,4.46,5.5.86,10.39-1.9,11.41c0,0,6-.32,12.08-1.18s11.28-1.93,13.16-2.82,3.27-2.09,4-9.12,1.22-25.78,1.08-32S365,204.26,359.46,201.44Z" style="fill:#37474f"></path><path d="M318.87,255.15c-3.68,3.72-10.14,4.45-15,1.63C307.14,260.49,315.68,261.1,318.87,255.15Z" style="fill:#f28f8f"></path><path d="M406.34,200.87c8.19,5.38,12.23,20.31,13,80.17-14.43,12.18-64,2-69.19-18.49-.51-3.6,2.28-21.49,1.61-31-1.24-17.36,2.9-24.94,7.7-30.1,9.24-3.78,20.23-5,22.15-4.83A208.34,208.34,0,0,1,406.34,200.87Z" style="fill:#315467"></path><path d="M406.38,201.58c8,1.8,13.7,2.9,18.89,23.86,4.08,16.45,5.2,23.83,5.73,33.15.3,5.28-3.05,7.54-5.47,10.34-11.06,12.74-25.56,22.14-28.23,24.62-2.91,2.7-6.63,7.72-10.3,9.43a42.75,42.75,0,0,1-8,3,17.19,17.19,0,0,1-7,.4,17.86,17.86,0,0,1-3.88-1.66,3.66,3.66,0,0,1-1.39-1.92,4.36,4.36,0,0,1-2.56-.76,2.69,2.69,0,0,1-1.1-2,17.18,17.18,0,0,1-2.34,0c-1.32-.21-1.62-1.22-.7-2.7,1.39-2.26,4.62-2.65,7.12-3.39a27,27,0,0,0,10.09-5.11c.61-.54,2.85-2.6,1-3a9.66,9.66,0,0,0-2.28,0,22.64,22.64,0,0,1-3.19-.13c-4.92-.59-5.48-4.09-4.68-5.15s5.45-.49,11.07-2.29c4.6-1.47,8-1.28,10.55-1.58,5-.61,17.35-16.56,20.59-20.61l-6.74-26.7S398.39,212.66,406.38,201.58Z" style="fill:#ffa8a7"></path><path d="M406.34,200.87c9.08,2.09,12.29,2.46,17.5,15.38s8.5,38.27,8.5,41.56-1.2,6-4.65,9.67-7.44,7.06-7.44,7.06a13.13,13.13,0,0,0-6.52-9.42c-6-3.52-8.06-3.3-8.06-3.3l4.05-6.09s-4-16-7-25.88S397,206.26,406.34,200.87Z" style="fill:#37474f"></path></g><g id="freepik--Head--inject-7"><path d="M390.48,192.79c4.7-6.48,11.52-11.34,13.42-22.1,2.13-12.11-2.54-22.6-9.73-23.82,0,0-1.48-8.52-12.73-11.73-5.79-1.65-12.64-1.07-18.37.53-6.5,1.8-11.17,5.37-16.2,9.77a11.69,11.69,0,0,1-4.44,2.77,11.48,11.48,0,0,1-3.9.68c.27,2,4.31,3.8,6.32,3.54-1.67,2.86-6.93,2.35-8.52,1.89-.4,2.29,1,5.72,3.18,7.71a10.44,10.44,0,0,0,7.16,2.9c1.93,0,5.18,5,7,5.68,2.89,1,5.65,2.26,8.6,3.14,3.4,1,6.08,1.54,8.67,4.11a37.13,37.13,0,0,1,2.9,3.48,16.59,16.59,0,0,0,3.62,3.17l9.18,6.68C387.57,191.87,389.55,192.91,390.48,192.79Z" style="fill:#37474f"></path><path d="M390.35,169.28a4.46,4.46,0,0,1,3.33-2.81,5,5,0,0,1,5.06,2.42c2,3.07,1.64,9.3-2.49,11.41a6.16,6.16,0,0,1-6.78-.43L392,199.36s-2.12,5.92-10.7,9.33c-10.39,4.12-14.66-1-12.1-5l-.82-5.7a26.09,26.09,0,0,1-8.12-.08,15.36,15.36,0,0,1-11.48-10.61c-1.25-3.8-.52-7.41-1.07-11.35-.32-2.35-1-6-1.14-7.55a12.25,12.25,0,0,1,.06-3.48c3.59.07,12-3.09,17.88-10.21-1,4.39-3.06,7.32-6.13,9.1,9.71,1.22,17.17-3.62,19.38-10.21-.11,2.94.55,6.94,1.52,8.64a11.08,11.08,0,0,0,6.07,5.51c-.13,1.49-.38,3.07.33,4.39,1.06,2,3.49,2.89,3.83,1.21A37.38,37.38,0,0,1,390.35,169.28Z" style="fill:#ffa8a7"></path><path d="M368.42,198s8.5-1.89,14.25-6.49a15,15,0,0,0,4.5-7.75s-.36,4.92-2.31,7.73c-5.12,7.36-16,9.38-16,9.38Z" style="fill:#f28f8f"></path><path d="M368.14,163l5.81,1.86a3.21,3.21,0,0,0-2-3.94A3,3,0,0,0,368.14,163Z" style="fill:#263238"></path><path d="M370,183.11l-7.81,2.73a4.33,4.33,0,0,0,5.42,2.59A4,4,0,0,0,370,183.11Z" style="fill:#b16668"></path><path d="M369.32,184.87a2.74,2.74,0,0,1,.91.1,4,4,0,0,1-2.65,3.46,4.48,4.48,0,0,1-.88.2,2.85,2.85,0,0,1-.12-.66A2.93,2.93,0,0,1,369.32,184.87Z" style="fill:#f28f8f"></path><path d="M371.71,172.87a2.51,2.51,0,1,1-2.66-2.35A2.52,2.52,0,0,1,371.71,172.87Z" style="fill:#263238"></path><path d="M354.69,173.76a2.5,2.5,0,1,1-2.66-2.35A2.51,2.51,0,0,1,354.69,173.76Z" style="fill:#263238"></path><path d="M347.63,167.09l5.68-2.37a3,3,0,0,0-3.93-1.72A3.23,3.23,0,0,0,347.63,167.09Z" style="fill:#263238"></path><path d="M351.76,180.21a6.69,6.69,0,1,1,6.68-6.69A6.7,6.7,0,0,1,351.76,180.21Zm0-12.23a5.54,5.54,0,1,0,5.54,5.54A5.55,5.55,0,0,0,351.76,168Z" style="fill:#263238"></path><polygon points="361.09 170.52 361.6 181.65 355.06 180.31 361.09 170.52" style="fill:#f28f8f"></polygon><path d="M370.16,179.27a6.69,6.69,0,1,1,6.69-6.69A6.69,6.69,0,0,1,370.16,179.27Zm0-12.23a5.54,5.54,0,1,0,5.54,5.54A5.55,5.55,0,0,0,370.16,167Z" style="fill:#263238"></path><path d="M363.51,173.21a2.85,2.85,0,0,0-3-1.76,2.11,2.11,0,0,0-2.07,1.48l-1.12-.21a3.15,3.15,0,0,1,3.11-2.41,4,4,0,0,1,4.17,2.53Z" style="fill:#263238"></path><path d="M375.69,170.55a.58.58,0,0,1-.57-.49.57.57,0,0,1,.48-.65l14.75-2.21a.56.56,0,0,1,.65.48.58.58,0,0,1-.48.65l-14.75,2.21Z" style="fill:#263238"></path></g></g></g></g><g id="freepik--Ribbon--inject-7"><g id="freepik--ribbon--inject-7"><g id="freepik--ribbon--inject-7"><path d="M209.72,234.9c-23.63,48.7-90.47,145.48-150.91,200,6.87-22.47,12.74-56.08,12.74-56.08l-45.33-6.11c43.52-33.69,102.36-98.12,132.3-156.68,40.3-78.84,29.25-136.94,16.4-136,3.46-19.17,44.1-28,53.41-17.2C251.6,87.1,242.3,167.71,209.72,234.9Z" style="fill:#315467"></path><path d="M209.72,234.9c-23.63,48.7-90.47,145.48-150.91,200,6.87-22.47,12.74-56.08,12.74-56.08l-45.33-6.11c43.52-33.69,102.36-98.12,132.3-156.68,40.3-78.84,29.25-136.94,16.4-136,3.46-19.17,44.1-28,53.41-17.2C251.6,87.1,242.3,167.71,209.72,234.9Z" style="opacity:0.15"></path><path d="M190.07,257.6c-6.09-.93-20.22-15.81-34.82-35.31-10.66,19.69-24.38,39.88-39.49,59.21,11.41,20,24.11,30.49,32,37.53,5.83,5.21-1,15.39-1.45,16.09,18-24.39,34.07-48.55,46.46-69.32L206,242.18l0,0C205.7,242.74,196,258.52,190.07,257.6Z" style="opacity:0.25"></path><path d="M174.92,80.12c4.47-.34,8.72,6.48,10.67,18.84,34.89-21.79,55.49-9.06,55.66,12.05.05-21.61-4.09-38.92-12.92-48.1C219,52.17,178.38,61,174.92,80.12Z" style="opacity:0.25"></path><path d="M107.21,292.18h0c-26.53,32.32-56.24,61.43-81,80.59l45.33,6.11-35-7.63C54.67,358.39,79.91,330,107.21,292.18Z" style="fill:#315467"></path><path d="M149.21,44.1C112.64,65.22,95,91.53,88.7,138.16s.52,81.19,18.62,116.38a224.7,224.7,0,0,0,43,58.08V290.7c-12.42-14.14-24.3-31.05-30.21-45.06-21.39-50.73,8.38-116.11,27.58-139.73s61.15-54.26,80.67-43C219.7,54.28,185.77,23,149.21,44.1Z" style="fill:#315467"></path><path d="M119.85,161.51,88.08,143.17c-5.15,44.11,1.8,77.45,19.24,111.37a224.7,224.7,0,0,0,43,58.08V290.7c-12.42-14.14-24.3-31.05-30.21-45.06C108.81,218.91,111.74,188.12,119.85,161.51Z" style="opacity:0.1"></path><path d="M195.73,67l-46.18-23.1-.34.18C136.43,51.48,126,59.5,117.49,68.79l42.12,24.32C170.2,83,183.27,73.2,195.73,67Z" style="fill:#fff;opacity:0.15"></path><path d="M111.46,76.05a97.39,97.39,0,0,0-7.58,11.75l40,23.1c1.29-1.82,2.55-3.49,3.77-5,1.58-2,3.33-3.94,5.19-6Z" style="fill:#fff;opacity:0.15"></path><path d="M160,236.74c-24.38-31.88-34-78-30.1-101.27h0c-14.33,30.61-25,74.09-9.78,110.17,5.91,14,17.79,30.92,30.21,45.06L191.4,267A151.76,151.76,0,0,1,160,236.74Z" style="fill:#315467"></path><path d="M130.31,163.61c-1.56-10.91-1.7-20.7-.44-28.14h0c-12.34,26.35-21.94,62.24-14.67,94.74C113.45,213.47,118.76,188.2,130.31,163.61Z" style="opacity:0.25"></path><polygon points="150.29 312.63 150.29 290.7 148.5 288.64 150.29 312.63" style="opacity:0.25"></polygon></g><g id="freepik--Puzzle--inject-7"><path d="M223.65,306l-2.89,1.66s0,15.24,0,16.38c0,1.85-1.62,4-4.65,5.74-4.89,2.83-11.62,3.54-15,1.59a3.27,3.27,0,0,1-1.52-4.55c.85-1.85-1.71-3.32-4.44-3.32a6.51,6.51,0,0,0-3.15.78l-17.07,9.86a283.18,283.18,0,0,1-24.63-21.52V290.7c8.54,9.73,17.36,18.15,24.63,23.4L192,304.24a6.4,6.4,0,0,1,3.15-.78c2.73,0,5.29,1.47,4.44,3.31a3.27,3.27,0,0,0,1.52,4.55c3.39,2,10.12,1.25,15-1.58s6.13-6.7,2.74-8.66C217,300,214,299.72,211,300.2c-4.47.68-7.66-2.49-4.38-4.38h0L223.65,286Z" style="fill:#315467"></path><path d="M150.29,290.7v21.93a283.18,283.18,0,0,0,24.63,21.52v-20C167.65,308.85,158.83,300.43,150.29,290.7Z" style="opacity:0.15"></path><polygon points="174.92 314.1 174.92 334.15 173.54 313.07 174.92 314.1" style="opacity:0.25"></polygon><path d="M279.54,312.83l-20-9.6h0c-3.42-1.64-9,.32-9,2.65,0,.21,0,4,0,4a4.12,4.12,0,0,1-1.37,1.22,9.5,9.5,0,0,1-4.15,1.08V297.38a2.23,2.23,0,0,0-1.35-1.81l-20-9.61-17.19,9.93a.09.09,0,0,0-.06,0,2.1,2.1,0,0,0-1.18,1.71V312.4a9.37,9.37,0,0,1-4.13-1.08,4.21,4.21,0,0,1-1.36-1.18v-4.08c0-2.17-4.71-3.51-7.69-1.85l-17.14,9.89v20c5.52,4.21,11.08,8.35,16.55,12.14l.2.13,0,0c2.92,1.65,7.52.19,7.51-2V341.3a4.29,4.29,0,0,1,1.37-1.2,9,9,0,0,1,3.67-1s0,13.06,0,14.77a2.13,2.13,0,0,0,1.24,1.74c3,1.84,5.91,3.72,8.72,5.4,3.3,2,6.48,3.87,9.47,5.6l55.86-32.24Z" style="fill:#315467"></path><path d="M250.66,306.52a1.53,1.53,0,0,1-.15-.64v4A3.23,3.23,0,0,0,250.66,306.52Z" style="opacity:0.15"></path><path d="M234.13,309.49A20.52,20.52,0,0,0,245,312.15V297.39c0,1.57-2.53,3.05-5.73,2.54-3-.47-6-.2-7.87.89C228,302.78,229.22,306.66,234.13,309.49Z" style="opacity:0.30000000000000004"></path><path d="M216.12,309.74c4.91-2.83,6.12-6.7,2.73-8.66C217,300,214,299.72,211,300.2s-5.73-1-5.73-2.56V312.4A20.35,20.35,0,0,0,216.12,309.74Z" style="opacity:0.15"></path><path d="M199.75,306.05a1.8,1.8,0,0,1-.17.72,3.2,3.2,0,0,0,.17,3.36Z" style="fill:#315467"></path><path d="M223.69,345.07c-3-1.73-6.18-3.55-9.48-5.47q-4.25-2.48-8.72-5.15a2.11,2.11,0,0,1-1.21-1.55h0v6.16s0,13.05,0,14.77a2.13,2.13,0,0,0,1.24,1.74c3,1.84,5.91,3.72,8.72,5.4,3.3,2,6.47,3.86,9.48,5.59Z" style="opacity:0.2"></path><path d="M199.19,324.16c-.38,2-4.71,3.24-7.49,1.67l0,0-.19-.13c-5.48-3.59-11-7.44-16.56-11.58v20c5.51,4.21,11.08,8.35,16.56,12.14l.19.13h0c2.92,1.66,7.51.21,7.51-2v-3.16h0Z" style="opacity:0.2"></path><path d="M218.34,328.85c-1.91,1.09-4.83,1.36-7.9.89-3.4-.53-6.39,1.38-6.16,3.16h0v6.16a9.06,9.06,0,0,0-3.66,1,4.11,4.11,0,0,0-1.37,1.21h0V324.16a1.7,1.7,0,0,0,0-.45.06.06,0,0,0,0-.06v0a1.4,1.4,0,0,0-.14-.47,3.3,3.3,0,0,1,1.55-4.56c3.38-2,10.1-1.24,15,1.58S221.72,326.89,218.34,328.85Z" style="opacity:0.30000000000000004"></path><path d="M279.54,312.83l-55.86,32.24c-3-1.73-6.17-3.55-9.47-5.47q-4.25-2.46-8.72-5.16c-3.27-1.89.48-5.39,5-4.7,3.06.46,6,.21,7.88-.89,3.39-2,2.16-5.84-2.74-8.67s-11.62-3.53-15-1.58a3.31,3.31,0,0,0-1.54,4.56c1.18,2.52-4.11,4.49-7.34,2.67l0,0-.2-.13c-5.47-3.58-11-7.43-16.55-11.58l17.14-9.89c3.29-1.84,8.71,0,7.52,2.56a3.27,3.27,0,0,0,1.53,4.55c3.39,2,10.11,1.26,15-1.57s6.12-6.71,2.73-8.67C217,300,214,299.72,211,300.2c-4.39.68-7.54-2.38-4.55-4.27a.09.09,0,0,1,.06,0L223.67,286l20,9.61c3.27,1.89.1,5.06-4.38,4.37-3-.47-6-.21-7.88.88-3.39,2-2.16,5.84,2.74,8.67s11.62,3.54,15,1.58a3.28,3.28,0,0,0,1.52-4.55c-1.2-2.58,5.15-5.09,8.89-3.3h0Z" style="fill:#315467"></path><path d="M279.54,312.83l-55.86,32.24c-3-1.73-6.17-3.55-9.47-5.47q-4.25-2.46-8.72-5.16c-3.27-1.89.48-5.39,5-4.7,3.06.46,6,.21,7.88-.89,3.39-2,2.16-5.84-2.74-8.67s-11.62-3.53-15-1.58a3.31,3.31,0,0,0-1.54,4.56c1.18,2.52-4.11,4.49-7.34,2.67l0,0-.2-.13c-5.47-3.58-11-7.43-16.55-11.58l17.14-9.89c3.29-1.84,8.71,0,7.52,2.56a3.27,3.27,0,0,0,1.53,4.55c3.39,2,10.11,1.26,15-1.57s6.12-6.71,2.73-8.67C217,300,214,299.72,211,300.2c-4.39.68-7.54-2.38-4.55-4.27a.09.09,0,0,1,.06,0L223.67,286l20,9.61c3.27,1.89.1,5.06-4.38,4.37-3-.47-6-.21-7.88.88-3.39,2-2.16,5.84,2.74,8.67s11.62,3.54,15,1.58a3.28,3.28,0,0,0,1.52-4.55c-1.2-2.58,5.15-5.09,8.89-3.3h0Z" style="fill:#fff;opacity:0.35000000000000003"></path><path d="M218.85,301.08c-1.89-1.1-4.81-1.36-7.88-.89-4.48.69-7.65-2.48-4.38-4.37h0L223.65,286a203.57,203.57,0,0,1-32.25-19l-15.28,8.82h0c-3.28,1.89-6.85-1.06-4.92-4.06,1.31-2.06,1.61-4.18.56-5.76-1.89-2.83-7.39-2.82-12.29,0s-7.35,7.41-5.46,10.24c1.05,1.57,3.22,2.27,5.79,2.09,3.74-.27,5,4,1.74,5.89l-11.25,6.5c8.54,9.73,17.36,18.15,24.63,23.4L192,304.24h0c3.27-1.9,8.77-.06,7.57,2.52a3.29,3.29,0,0,0,1.53,4.55c3.39,2,10.12,1.25,15-1.58S222.24,303,218.85,301.08Z" style="fill:#315467"></path><path d="M218.85,301.08c-1.89-1.1-4.81-1.36-7.88-.89-4.48.69-7.65-2.48-4.38-4.37h0L223.65,286a203.57,203.57,0,0,1-32.25-19l-15.28,8.82h0c-3.28,1.89-6.85-1.06-4.92-4.06,1.31-2.06,1.61-4.18.56-5.76-1.89-2.83-7.39-2.82-12.29,0s-7.35,7.41-5.46,10.24c1.05,1.57,3.22,2.27,5.79,2.09,3.74-.27,5,4,1.74,5.89l-11.25,6.5c8.54,9.73,17.36,18.15,24.63,23.4L192,304.24h0c3.27-1.9,8.77-.06,7.57,2.52a3.29,3.29,0,0,0,1.53,4.55c3.39,2,10.12,1.25,15-1.58S222.24,303,218.85,301.08Z" style="fill:#fff;opacity:0.2"></path><path d="M328.63,319.66c0-2.29-2.48-5-6.84-6.92-6.31-2.84-14.18-3.09-17.58-.57-1.89,1.41-2,3.38-.62,5.34,2,2.85-3.78,5.39-8,3.53l-16-8.22-18.3,10.57h0L232.45,340l-8.77,5.06v21.5l46.54,26.87,21.83-12.61a2.53,2.53,0,0,0,1.56-2.11c0-1.81,0-17,0-17a10.92,10.92,0,0,1,4.78,1.24,4.86,4.86,0,0,1,1.57,1.37V369a2.53,2.53,0,0,0,1.5,2.07,8.06,8.06,0,0,0,7.44,0l21.83-12.61V337l-2.1-1Z" style="fill:#315467"></path><path d="M328.63,319.66c0-2.29-2.48-5-6.84-6.92-6.31-2.84-14.18-3.09-17.58-.57-1.89,1.41-2,3.38-.62,5.34,2,2.85-3.78,5.39-8,3.53l-16-8.22-18.3,10.57h0L232.45,340l-8.77,5.06v21.5l46.54,26.87,21.83-12.61a2.53,2.53,0,0,0,1.56-2.11c0-1.81,0-17,0-17a10.92,10.92,0,0,1,4.78,1.24,4.86,4.86,0,0,1,1.57,1.37V369a2.53,2.53,0,0,0,1.5,2.07,8.06,8.06,0,0,0,7.44,0l21.83-12.61V337l-2.1-1Z" style="opacity:0.25"></path><path d="M321.79,312.74c-6.31-2.84-14.18-3.09-17.58-.57-1.89,1.41-2,3.38-.62,5.34,2,2.85-3.78,5.39-8,3.53l-16-8.22-18.3,10.57h0c-3.27,1.89-8.77.06-7.57-2.53a3.28,3.28,0,0,0-1.53-4.55c-3.39-2-10.11-1.25-15,1.58s-6.13,6.71-2.74,8.67c1.89,1.09,4.82,1.35,7.88.88,4.48-.69,7.65,2.49,4.38,4.38h0l-23,13.25,46.54,26.87,21.83-12.6c3.78-2.19.12-5.85-5.05-5a20.18,20.18,0,0,1-5.05.17,10.37,10.37,0,0,1-4-1.19c-3.91-2.26-2.5-6.74,3.16-10s13.41-4.08,17.32-1.83a3.78,3.78,0,0,1,1.76,5.26c-.53,1.16.11,2.19,1.31,2.89a8.09,8.09,0,0,0,7.44,0L330.73,337l-16.44-7.56c-4.13-1.91-1.29-5.76,4-5.34,3.63.28,6.91-.26,8.81-1.67C330.47,319.91,328.11,315.57,321.79,312.74Z" style="fill:#315467"></path><path d="M321.79,312.74c-6.31-2.84-14.18-3.09-17.58-.57-1.89,1.41-2,3.38-.62,5.34,2,2.85-3.78,5.39-8,3.53l-16-8.22-18.3,10.57h0c-3.27,1.89-8.77.06-7.57-2.53a3.28,3.28,0,0,0-1.53-4.55c-3.39-2-10.11-1.25-15,1.58s-6.13,6.71-2.74,8.67c1.89,1.09,4.82,1.35,7.88.88,4.48-.69,7.65,2.49,4.38,4.38h0l-23,13.25,46.54,26.87,21.83-12.6c3.78-2.19.12-5.85-5.05-5a20.18,20.18,0,0,1-5.05.17,10.37,10.37,0,0,1-4-1.19c-3.91-2.26-2.5-6.74,3.16-10s13.41-4.08,17.32-1.83a3.78,3.78,0,0,1,1.76,5.26c-.53,1.16.11,2.19,1.31,2.89a8.09,8.09,0,0,0,7.44,0L330.73,337l-16.44-7.56c-4.13-1.91-1.29-5.76,4-5.34,3.63.28,6.91-.26,8.81-1.67C330.47,319.91,328.11,315.57,321.79,312.74Z" style="opacity:0.1"></path><g style="opacity:0.15"><path d="M328.63,319.66a3.39,3.39,0,0,1-1.55,2.78c-1.9,1.39-5.18,1.94-8.81,1.66-5.27-.43-8.1,3.44-4,5.34L328.63,336Z"></path><path d="M300,347.49h0a2,2,0,0,1,.18-.79,3.77,3.77,0,0,0-1.75-5.24c-3.92-2.26-11.68-1.45-17.33,1.82s-7.07,7.74-3.16,10a10.26,10.26,0,0,0,4,1.18,19.2,19.2,0,0,0,5-.16c3.78-.58,6.73,1.21,6.59,3.07h0v4.33a11.07,11.07,0,0,1,4.79,1.25,4.92,4.92,0,0,1,1.56,1.37Z"></path><polygon points="270.22 393.44 270.22 371.94 223.68 345.07 223.68 366.57 270.22 393.44"></polygon></g></g></g></g><g id="freepik--puzzle-piece--inject-7"><g id="freepik--puzzle--inject-7"><path d="M423.81,380l-60.5-29.57-21.83,12.61h0c-3.78,2.18-10.13.07-8.74-2.91a3.79,3.79,0,0,0-1.77-5.25c-3.91-2.26-11.67-1.45-17.32,1.82-3.49,2-5.37,4.49-5.37,6.62v18.89l-10.13,5.85v21.49L354,441.81l26.49-15.29a2.57,2.57,0,0,0,1.55-2.13c0-1.81,0-17,0-17a10.92,10.92,0,0,1,4.78,1.24A4.92,4.92,0,0,1,388.4,410s0,4.44,0,4.71a2.54,2.54,0,0,0,1.5,2.06,8.07,8.07,0,0,0,7.43,0l26.49-15.29Z" style="fill:#37474f"></path><path d="M341.48,363.05h0c-3.78,2.18-10.13.07-8.74-2.91a3.79,3.79,0,0,0-1.77-5.25c-3.91-2.26-11.67-1.45-17.32,1.82s-7.07,7.74-3.16,10c2.18,1.26,5.56,1.56,9.1,1,5.16-.8,8.82,2.86,5,5h0l-26.49,15.29L354,420.31,380.49,405c3.78-2.18.11-5.84-5.05-5a19.76,19.76,0,0,1-5.06.16,10.48,10.48,0,0,1-4-1.19c-3.9-2.26-2.5-6.74,3.15-10s13.42-4.07,17.33-1.82a3.8,3.8,0,0,1,1.77,5.26c-.54,1.16.09,2.19,1.3,2.89a8.07,8.07,0,0,0,7.43,0L423.81,380l-60.5-29.57Z" style="fill:#455a64"></path><polygon points="354 420.31 354 441.81 298.15 409.56 298.15 388.07 354 420.31" style="fill:#263238"></polygon><path d="M324.64,372.77l-16.36,9.46V363.34a3.87,3.87,0,0,0,2.21,3.37c2.18,1.26,5.56,1.56,9.1,1C324.75,366.93,328.4,370.59,324.64,372.77Z" style="fill:#263238"></path><path d="M388.4,393.24h0a1.8,1.8,0,0,1,.19-.85,3.79,3.79,0,0,0-1.78-5.26c-3.9-2.26-11.66-1.44-17.32,1.82s-7.06,7.75-3.14,10a10.16,10.16,0,0,0,4,1.18,19.85,19.85,0,0,0,5.07-.16c3.67-.58,6.58,1.12,6.59,2.93,0,.73,0,4.48,0,4.48h0a10.74,10.74,0,0,1,4.76,1.24,4.92,4.92,0,0,1,1.58,1.38h0Z" style="fill:#263238"></path></g></g></svg>