<svg viewBox="0 0 400 400" xmlns="http://www.w3.org/2000/svg" id="No-Email-3--Streamline-Brooklyn.svg" height="400" width="400"><desc>NO EMAIL 3 Streamline Illustration: https://streamlinehq.com</desc><path d="M186.384 39.464c4.498 -4.844 9.91 -8.894 14.766 -13.266 7.538 -6.79 15.456 -1.624 23.072 -0.692 4.148 0.506 8.422 0.576 12.69 1.268 -9.636 4.956 -17.132 8.616 -22.496 11.652a0.544 0.544 0 0 0 0.578 0.922c13.782 -6.616 26.104 -12.782 31.954 -15.8 5.948 -3.072 10.258 -6.78 20.42 1.616 5.8 4.8 9.332 9.946 13.612 16.15 0.138 0.2 100.974 145.734 101.174 145.934a1.01 1.01 0 0 0 1.73 -1.038c-12.752 -19.13 20.924 29.6 -100.02 -144.666 -5.8 -8.364 -15.698 -22.94 -27 -23.648 -4.022 -0.252 -6.072 1.71 -17.19 7.268 -0.114 0 -9.116 -1.012 -13.496 -1.5 -9.374 -1.046 -16.716 -5.456 -24 -0.346 -1.566 1.098 -6.436 5.512 -7.152 6.23a68.786 68.786 0 0 0 -9 9.344c-0.45 0.456 0.126 0.918 0.358 0.572Z" fill="#191919" stroke-width="1"></path><path d="M164.81 63.344c0.868 -0.474 3.556 -2.826 18.458 -11.766a54.5 54.5 0 0 1 0.924 -18.69 0.652 0.652 0 0 0 -0.8 -0.8 179.616 179.616 0 0 0 -25.956 7.152c7.416 7.742 6.946 17.248 7.374 24.104Z" fill="#5dadc4" stroke-width="1"></path><path d="M133.548 129.562c1.5 -3.576 -0.692 -9.46 -3.922 -11.536a8.232 8.232 0 0 0 6.228 -2.2 8.134 8.134 0 0 0 2.308 -6.576c0.23 0.116 2.066 1.724 3.8 -1.384 1.49 -2.658 3.372 -5.06 4.962 -7.614a175.44 175.44 0 0 0 9.574 -17.534c0.346 -0.578 -0.576 -1.154 -0.922 -0.578 -3 4.966 -11.928 18.896 -13.036 21 -0.6 1.142 -1.73 3.8 -3.23 3.922 -0.2 0 -9.012 -6.216 -11.19 -4.036a292.868 292.868 0 0 1 5.19 -29.072 0.476 0.476 0 0 0 -0.922 -0.232 225.356 225.356 0 0 0 -8.306 52.26c1.018 0.818 2.366 0.618 9.466 3.58Z" fill="#191919" stroke-width="1"></path><path d="M242.104 227.044c8.8 -4.752 7.316 -10.368 9.92 -15 1.496 -2.656 4.382 -5.064 7.614 -4.384 3.344 0.704 4.6 4.4 5.768 7.268 0.568 1.388 2.8 0.916 2.308 -0.692a14.2 14.2 0 0 0 -4.96 -7.844 8.448 8.448 0 0 0 -9.576 0.576c-3.386 2.484 -4.248 6.584 -5.652 10.152 -2.444 6.212 -6.216 7.872 -11.536 10.152 0.23 0.578 0.576 1.154 0.8 1.73a18.214 18.214 0 0 0 5.314 -1.958Z" fill="#191919" stroke-width="1"></path><path d="M251.678 201.434c0.8 -0.462 4.964 -2.44 2.538 -2.884a6.334 6.334 0 0 0 -5.306 1.73c-0.346 0.46 -1.27 1.384 -1.27 1.96 0.268 2.132 3.76 -0.806 4.038 -0.806Z" fill="#191919" stroke-width="1"></path><path d="M242.91 199.472a27.8 27.8 0 0 1 4.038 -2.538c1.032 -0.588 1.384 -2.2 -0.23 -2.076 -5.78 0.446 -6.244 7.05 -3.808 4.614Z" fill="#191919" stroke-width="1"></path><path d="M240.834 192.896c0.8 -0.23 2.2 -1.038 1.038 -1.73 -2.6 -1.3 -10.06 3.272 -7.844 4.96a0.728 0.728 0 0 0 1.038 -0.114 9.786 9.786 0 0 1 5.768 -3.116Z" fill="#191919" stroke-width="1"></path><path d="M222.262 197.164a27.584 27.584 0 0 1 5.652 -6.46c1.496 -1.042 2.774 -0.664 4.384 -1.038a0.858 0.858 0 0 0 0.462 -1.268c-1.52 -2.064 -4.82 -0.776 -6.462 0.46a28.288 28.288 0 0 0 -5.076 5.884 30.252 30.252 0 0 0 -5.306 10.382c0.692 0.346 1.27 0.692 1.846 1.038a28.306 28.306 0 0 1 4.5 -8.998Z" fill="#191919" stroke-width="1"></path><path d="M330.818 271a44.138 44.138 0 0 0 2.768 -3.69c0.23 -0.462 0.346 -1.154 -0.116 -1.27 -0.474 -0.238 -2.62 1.814 -3 2.2a3.482 3.482 0 0 0 -1.962 -2.884 6.63 6.63 0 0 0 -3.576 -0.346c-4.722 0.822 -9.624 4.11 -10.268 8.768 -0.948 6.872 8.106 7.978 12.8 2.652a6.556 6.556 0 0 0 6.46 3.23c4.282 -0.388 9.438 -5.026 10.268 -12a15.8 15.8 0 0 0 -6.8 -14.652c-7.266 -4.962 -17.426 -3.012 -24.572 1.384 -7.852 4.832 -13.8 14.4 -10.498 23.766 2.95 8.378 11.36 12.8 16.844 12.228a20.966 20.966 0 0 0 3.576 -0.692c0.8 -0.236 0.576 -1.27 -0.23 -1.384 -7.306 -0.23 -12.966 -2.2 -16.614 -8.884 -3.132 -5.746 -2.238 -13.448 4.384 -19.726 8.716 -8.264 24.168 -10.104 29.648 0a12.928 12.928 0 0 1 0.462 11.65 11.544 11.544 0 0 1 -6.114 5.768 3.866 3.866 0 0 1 -4.154 -1.038 4.164 4.164 0 0 1 0.694 -5.08Zm-7.384 5.654a7.348 7.348 0 0 1 -4.73 0.576c-3.25 -0.91 -1.642 -6.962 3.922 -9.114 1.084 -0.418 4.96 -1.438 4.96 -0.576a8.4 8.4 0 0 1 -0.46 3.346 8.236 8.236 0 0 1 -3.692 5.764Z" fill="#5dadc4" stroke-width="1"></path><path d="M389.882 202.472c0 -0.692 -1.038 -0.692 -1.152 0 -0.694 8.536 -1.236 17.078 -2.538 25.6 -4.71 30.828 -25.718 135.958 -28.496 151.932 -12.9 -2.15 -85.25 -10.15 -111.44 -13.728 -12.612 -1.724 -68.422 -10.8 -101.288 -17.882a0.476 0.476 0 0 0 -0.23 0.924 357.692 357.692 0 0 0 42.452 9.92c17.2 3.21 86.526 13.014 103.942 15.114 0.2 0.024 68.44 7.814 68.642 7.614 0.868 -0.87 18.88 -94.626 18.918 -94.828 2.296 -12.346 10.96 -63.45 11.306 -76.832 -0.116 -2.758 -0.116 -5.296 -0.116 -7.834Z" fill="#191919" stroke-width="1"></path><path d="M264.83 287.724a0.572 0.572 0 1 0 -0.8 0.8c20.528 21.27 39.668 44.664 77.754 76.946a85.854 85.854 0 0 0 10.73 8.306 0.954 0.954 0 0 0 1.152 -1.5c-9.324 -9.308 -9.356 -2.894 -88.836 -84.552Z" fill="#191919" stroke-width="1"></path><path d="M88.44 281.726c2.82 -11.28 4.982 -23.716 9 -34.148 0.578 -1.5 1.856 -3.71 3.924 -2.768 1.738 0.8 1.486 2.768 1.384 4.384 -0.584 9.2 -4.154 34.08 -4.154 39.108 0.58 0 34.784 19.098 58.374 21.572 1.144 -11.558 0.116 -19.672 0.116 -43.03 0 0.576 -7.268 0.47 -8.076 0.462a34.654 34.654 0 0 1 -14.652 -3.578c-12.96 -6.26 -20.922 -19.938 -26.532 -32.646 -4.436 -10.048 -11.452 -30.69 -13.268 -42.684 -2.174 -14.384 -1.386 -28.042 7.96 -39.108 0.462 -0.462 1.386 0.23 0.924 0.692 -13.78 18.372 -7.19 41.644 0.23 63.564 8.672 25.614 21.886 52.532 49.144 50.876 14.188 -0.864 27.826 -6.628 41.07 -11.2 1.578 -0.542 40.828 -14.364 41.876 -15.688 1.532 -1.936 -0.698 -4.958 -1.614 -6.922 -4.884 -10.48 -15.116 -25.668 -28.034 -26.418a34.852 34.852 0 0 0 -10.844 1.5c-7.85 2.052 -15.688 4.498 -23.534 7.152a38.588 38.588 0 0 1 3.922 7.384 32.46 32.46 0 0 1 2.2 12.69 0.232 0.232 0 1 1 -0.46 0 41.6 41.6 0 0 0 -1.396 -6.454 42.046 42.046 0 0 0 -6.114 -13.15c-0.46 0.114 -0.922 0.346 -1.384 0.46a132.462 132.462 0 0 1 -0.116 22.842 42.922 42.922 0 0 1 -0.922 6.692c0 0.23 -0.346 0.116 -0.346 0 -0.346 -3.8 0.624 -12.27 -0.692 -30.686 -1.688 -8.676 -4.702 -35.926 -15.112 -57.8 -6.852 -14.4 -18.8 -27.252 -34.6 -27.57 -6.344 -0.13 -11.766 3.458 -17.42 5.652 -15.5 6.014 -32.926 7 -46.374 -2.654a15.47 15.47 0 0 1 -0.578 -2.306c-3.868 2.9 -6.422 -0.962 -2.2 -5.2 -0.462 0.462 -1.614 -3.692 -1.614 -4.154 0.346 -2.306 18.834 -35.4 22.148 -41.068a226.122 226.122 0 0 1 15.69 -23.65 112.982 112.982 0 0 0 -44.414 28.38C20.02 104.4 21.876 152.288 26.6 167.17c2.318 -12.744 6.284 -32.6 16.612 -40.6 0.456 -0.352 1.154 0.232 0.692 0.694s-0.922 0.8 -1.384 1.268a40.6 40.6 0 0 0 -8.882 16.036c-6.288 18.536 -8.432 49.972 -9.114 51.336 -1.94 22.16 -4.686 43.118 -10.728 64.6 14.116 -10.588 73.604 20.606 74.644 21.222ZM34.22 123.102c-0.582 0.336 -1.156 -0.582 -0.576 -0.922a31.704 31.704 0 0 1 10.156 -4.038c2.076 -0.416 2.984 -0.63 3.692 -0.346a0.784 0.784 0 0 1 0.23 1.384 3.322 3.322 0 0 1 -1.846 0.346 37.812 37.812 0 0 0 -11.656 3.576Z" fill="#5dadc4" stroke-width="1"></path><path d="M138.046 310.8c3.622 0.932 15.178 4 18.92 3.8 2.076 -0.11 3.93 -1.4 1.5 -2.538a23.706 23.706 0 0 0 -5.884 -0.924c-12.524 -2.636 -24.934 -5.514 -55.49 -21.456a93.57 93.57 0 0 1 0.8 -21.228c0.8 -7.036 1.436 -14.212 2.424 -21.226 0.096 -0.694 -1.04 -0.8 -1.154 -0.116 -2.884 12.922 -6.8 25.612 -10.038 38.416 0.232 -0.922 -12.012 -6.314 -13.266 -6.922 -9.172 -4.438 -27.62 -14.06 -43.952 -18.226a23.946 23.946 0 0 0 -15.8 0.8c-11.73 5.626 -5.416 24.252 9.23 30.11 0.288 7.366 5.8 69.132 5.882 69.334 0.462 1.268 1.172 2.324 2.2 1.268 1.646 -1.702 -0.19 -9 -0.346 -11.074 -1.92 -25.644 -7.426 -71.486 -6.344 -71.64 17.966 -4.044 29.772 3.78 54.104 12.92a538.71 538.71 0 0 0 56.066 18.342c-1.094 13.876 -1.268 55.344 -1.268 69.218 0 2.318 1.664 4.722 2.538 -1.5a80.44 80.44 0 0 0 0.23 -11.19c0.002 -12.204 0.674 -35.646 -0.352 -56.168Z" fill="#191919" stroke-width="1"></path><path d="M84.4 345.174a17.6 17.6 0 0 0 -0.8 -6.228 7.878 7.878 0 0 0 -3.922 -3.692 110.068 110.068 0 0 0 -26.188 -10.268 0.658 0.658 0 0 0 -0.346 1.27c4.574 1.836 9.228 3.576 13.728 5.536 -1.386 1.388 -0.4 28.946 0.346 39.108 0.112 1.5 2.538 1.616 2.422 0 -0.654 -9.178 -1.812 -38.498 -2.2 -38.876 3.116 1.384 12.46 6 13.498 7.498a10.936 10.936 0 0 1 0.924 5.538c0.048 0.85 1.51 23.932 2.652 28.61a1.298 1.298 0 0 0 2.538 -0.346c-0.226 -2.424 -2.402 -23.42 -2.652 -28.15Z" fill="#191919" stroke-width="1"></path><path d="M62.83 320.488a0.4 0.4 0 0 0 0.692 -0.346 57.064 57.064 0 0 0 -1.96 -6.576 74.118 74.118 0 0 1 -2.762 -20.074c0 -0.462 -0.576 -0.462 -0.692 0a63.716 63.716 0 0 0 2.308 20.42 21.13 21.13 0 0 0 2.414 6.576Z" fill="#191919" stroke-width="1"></path><path d="M109.668 308.144a2.906 2.906 0 0 0 -1.732 -0.692c-13.37 -2.23 -17.13 -2.728 -26.302 -3.8 -0.576 -0.116 -0.69 0.914 -0.116 1.038 25.056 5.4 26.268 4.734 26.65 5.308a18.666 18.666 0 0 1 0.346 6.574c-1.2 9.094 -8.586 14.82 -13.036 14.652 -7.728 -0.292 -10.6 -10.268 -11.422 -16.496 -0.226 -1.732 -0.2 -3.466 -0.46 -5.2 -0.104 -0.694 -1.27 -1.154 -1.5 -0.232a23.8 23.8 0 0 0 0.8 9.692c1.436 5.862 4.146 11.846 9.92 13.612a10.184 10.184 0 0 0 8.306 -1.154c11.104 -6.53 10.896 -21.474 8.546 -23.302Z" fill="#191919" stroke-width="1"></path><path d="M49.448 287.84a114.69 114.69 0 0 0 -17.074 -1.962c-0.576 0 -0.8 0.91 -0.114 1.038 3.172 0.6 15.41 2.284 16.38 2.77 0.024 0.2 3.086 7.818 -0.576 14.65 -1.6 3 -5.186 5.978 -8.768 4.96 -4.294 -1.218 -4.2 -6.308 -6.114 -11.074 -0.23 -0.576 -1.268 -0.576 -1.268 0.116a26.268 26.268 0 0 0 1.268 7.036 9.718 9.718 0 0 0 3.576 4.962c3.838 2.372 8.578 0.382 11.306 -2.654 3.278 -3.648 3.346 -8.19 3.23 -12.8 -0.402 -2.01 0.118 -5.864 -1.846 -7.042Z" fill="#191919" stroke-width="1"></path><path d="M144.276 83.302c0.924 0 2.318 0 2.538 -1.038 0.244 -1.152 -1.154 -1.154 -1.846 -1.154 -7.554 0 -7.224 -0.424 -8.768 -0.23a0.648 0.648 0 0 0 -0.346 1.154 21.538 21.538 0 0 0 8.422 1.268Z" fill="#191919" stroke-width="1"></path><path d="M103.668 86.416c-8.772 36.074 -8.622 33.83 -9.228 38.07a0.6 0.6 0 0 0 1.154 0.346c2.522 -7.174 7.2 -30.912 8.652 -38.3a0.296 0.296 0 1 0 -0.578 -0.116Z" fill="#191919" stroke-width="1"></path><path d="M288.71 136.022a138.036 138.036 0 0 0 22.034 16.266c0.692 0.346 1.5 -0.576 0.922 -1.152 -2.142 -1.686 0.158 0.14 -9.574 -7.154 -33.112 -24.814 -60.414 -65.382 -74.64 -83.752 -0.452 -0.584 -1.384 0 -0.922 0.576 18.088 25.906 38.188 54.194 62.18 75.216Z" fill="#191919" stroke-width="1"></path><path d="M216.724 64.268c-0.116 -0.578 -1.038 -0.462 -0.924 0.114 2.2 25 14.29 57.338 17.19 63.22 0.342 0.694 1.486 0.234 1.268 -0.578 -2.582 -9.648 -14.672 -38.714 -17.534 -62.756Z" fill="#191919" stroke-width="1"></path><path d="M333.702 187.6c21.486 3.582 47.812 9.116 49.144 9.46 0.46 0.118 0.58 -0.586 0.23 -0.692 -54.568 -16.688 -163.73 -22.018 -221.6 -42.338 -1.964 -0.69 -3.944 -1.338 -5.768 -2.2 -0.468 -0.22 -0.8 0.46 -0.348 0.576 11.562 5.4 30.95 10.236 43.378 13.036 46.91 10.568 86.436 14.058 134.964 22.158Z" fill="#191919" stroke-width="1"></path><path d="M164.234 189.782a34.252 34.252 0 0 0 6.114 4.618 69.6 69.6 0 0 0 13.958 6.8c3.258 0.978 5.316 2.032 7.268 1.5 0.232 -0.116 0.462 -0.462 0.232 -0.692 -1.578 -1.576 -4.698 -1.124 -13.96 -5.2a95.882 95.882 0 0 1 -13.15 -7.608c-0.346 -0.342 -0.808 0.236 -0.462 0.582Z" fill="#191919" stroke-width="1"></path><path d="M370.386 205.816c4.156 -0.306 8.306 -0.056 12.46 -0.114 0.922 -0.014 1.272 -1.52 0.23 -1.73 -5.952 -1.2 -17.066 0.066 -23.418 1.268 -6.47 1.224 -13.452 3.536 -16.958 9.576a12.658 12.658 0 0 0 -1.73 8.652 852.146 852.146 0 0 1 -87.562 -3.8 0.366 0.366 0 0 0 -0.114 0.692c30.2 4.576 59.21 5.452 88.944 5.2 0.692 0 1.268 -0.692 1.038 -1.27 -4.294 -12.89 13.524 -17.468 27.11 -18.474Z" fill="#191919" stroke-width="1"></path><path d="M50.256 119.756c-0.6 1.262 1.154 2.424 1.846 1.5 1.414 -1.414 9.972 -22.76 34.262 -60.68 3.556 -5.552 7.152 -10.96 10.614 -16.382 0.23 -0.462 -0.462 -1.038 -0.692 -0.576 -15.368 19.208 -35.57 53.982 -46.03 76.138Z" fill="#191919" stroke-width="1"></path><path d="M50.372 126.332a0.49 0.49 0 1 0 0.692 0.692 193.46 193.46 0 0 0 36 -37.954 27.164 27.164 0 0 0 3.462 -5.538 0.584 0.584 0 0 0 -0.924 -0.692c-1.98 1.816 -5.774 8.076 -14.304 17.882a329.698 329.698 0 0 1 -24.926 25.61Z" fill="#191919" stroke-width="1"></path><path d="M137.816 89.646a2.104 2.104 0 0 0 1.038 2.654A2.362 2.362 0 0 0 140 87.916c-0.8 -0.23 -1.838 0.578 -2.184 1.73Z" fill="#191919" stroke-width="1"></path><path d="M101.938 41.426c2.154 -2.872 4.164 -6.644 9 -9.23 8.662 -4.628 26.368 -3.614 38.062 4.614a28.238 28.238 0 0 1 11.882 25.266 21.672 21.672 0 0 1 -2.654 8.2 31.836 31.836 0 0 0 3.462 -0.462c4.892 -11.414 0.712 -25.022 -8.076 -32.762a39.876 39.876 0 0 0 -19.958 -9.114c-10.314 -1.876 -22.8 -0.906 -29.186 7.152a35.952 35.952 0 0 0 -3.576 5.538c0.236 0.106 0.582 0.452 1.044 0.798Z" fill="#191919" stroke-width="1"></path><path d="M165.388 65.42c-0.342 0.24 -0.822 0.466 -0.692 1.04a0.62 0.62 0 0 0 0.922 0.46c15.982 -9.36 29.34 -16.312 29.648 -16.496A14.158 14.158 0 0 0 207.034 54c6.632 -0.722 13.306 -4.938 19.842 -5.538 2 -0.184 4.776 0.628 5.768 -1.038 1.456 -2.448 -2.648 -4.974 -4.384 -5.652a18.8 18.8 0 0 0 -7.844 -0.8c-5.31 0.306 -6.844 1.87 -8.884 0.8 -2.8 -1.454 -2.8 -4.84 -3.346 -7.498 -0.12 -0.576 -0.8 -0.348 -0.922 0.114 -0.346 3.692 1.268 9.23 5.884 9.23 1.158 0 9.726 -2.742 15.342 0 0.696 0.338 2.868 1.724 2.538 2.652 -0.364 1.032 -3.23 0.334 -3.922 0.346 -6.232 0.116 -11.76 3.6 -17.766 4.846 -4.6 0.948 -10.092 0.624 -13.266 -3.23 -1.336 -1.62 -29.964 16.684 -30.686 17.188Z" fill="#191919" stroke-width="1"></path><path d="M126.742 64.498a82.422 82.422 0 0 0 25.032 10.152c3.6 0.724 11.248 1.924 12.8 -1.384a0.716 0.716 0 0 0 -0.574 -1.038c-2.892 -0.2 -3.042 1.252 -10.73 -0.116 -14.776 -2.63 -39.024 -14.94 -54.8 -31.84 -0.462 -0.346 -1.158 0.234 -0.8 0.692 7.638 9.992 18.19 17.368 29.072 23.534Z" fill="#5dadc4" stroke-width="1"></path></svg>