<svg xmlns="http://www.w3.org/2000/svg" fill="none" viewBox="0 0 400 400" id="Online-Consultation-1--Streamline-Brooklyn.svg" height="400" width="400"><desc>Online Consultation 1 Streamline Illustration: https://streamlinehq.com</desc><g id="online-consultation-1--health-wellness-online-consultation"><g id="phone"><path id="vector" fill="#191919" d="M128.265 122.2616L127.5696 173.9598C129.1604 170.6114 130.5344 167.9128 131.537 166.0044C131.6712 153.5636 131.8466 139.3548 132.0446 126.2786C130.9574 125.0282 129.5874 123.6068 128.265 122.2616Z" stroke-width="1"></path><path id="vector_2" fill="#191919" d="M132.414 104.6838C132.645 93.1466 132.8864 84.9478 133.1112 83.7306C134.5576 75.8864 141.0254 69.2968 149.2864 68.3828C152.9958 67.9722 168.3002 67.3636 174.9312 67.1388C209.4186 65.971 237.5558 66.7034 266.5946 68.261C275.7612 68.752 282.9388 75.9092 284.1252 84.6982L284.5852 159.6562C286.279 161.3686 287.8718 163.1306 289.3654 164.9338C288.9528 134.4466 288.2844 86.2682 288.1648 84.9994C287.2034 74.8384 279.4068 65.7214 267.6922 64.3824C264.4612 64.013 247.0194 63.3364 242.0886 63.1712C196.2848 61.6362 151.8404 63.914 147.3964 64.665C140.6542 65.8038 134.0604 70.642 130.9162 77.7C128.428 83.2828 128.8448 87.0192 128.7478 91.5994C128.7106 93.3798 128.628 98.3376 128.5228 105.2098C128.5126 105.8164 132.3974 105.7856 132.4202 104.6838H132.414Z" stroke-width="1"></path><path id="vector_3" fill="#191919" d="M285.9592 328.8194C284.022 339.6302 275.4784 346.3622 267.23 346.647C257.2362 346.9916 216.7304 347.4144 206.5056 347.2494C196.2764 347.0844 148.8942 345.7556 148.8942 345.7556L147.1798 345.4338C138.5084 343.2386 132.9256 335.6216 132.742 327.1936C132.6058 320.9814 132.3128 299.9766 132.024 276.2794C130.85 276.2278 129.6576 276.1658 128.271 276.0936C128.89 329.5188 128.8612 328.8564 129.1664 330.2986C130.8996 341.5036 140.295 349.4694 150.4912 349.752C162.379 350.0822 215.7648 350.7258 216.8046 350.697C268.014 349.3044 267.9128 349.1598 269.9926 348.6792C277.7148 346.8966 283.339 341.4086 285.5362 334.953C286.5822 331.881 286.6958 329.3228 286.5822 328.1014C286.4688 326.878 286.2934 326.9584 285.9592 328.8194Z" stroke-width="1"></path><path id="vector_4" fill="#191919" d="M286.5926 325.7226C287.2116 320.348 287.812 299.6258 288.3174 275.906C287.2632 276.3764 286.244 276.7744 285.2742 277.1088C285.5796 321.0062 285.856 332.1184 286.5926 325.7206V325.7226Z" stroke-width="1"></path><path id="vector_5" fill="#191919" d="M178.0486 313.977C179.5362 312.2234 178.6242 302.8526 169.8104 298.7326C166.3114 297.0964 161.886 296.7066 157.576 298.1012C149.505 300.7152 144.3596 309.3928 146.4824 318.1282C149.4452 330.3172 164.3886 335.0398 173.7016 326.9296C176.9922 324.0638 178.618 320.474 178.6882 316.6674C178.6984 316.096 178.6758 315.5286 178.5354 315.0438C178.3168 314.2968 177.9598 313.909 177.5452 314.3258C177.0006 314.8724 176.524 316.6818 176.2454 317.2822C173.9058 323.5046 167.6606 328.0622 160.5882 326.88C152.61 325.5452 147.5842 316.849 151.0524 308.9038C155.8326 297.9526 172.0758 298.4458 176.5178 311.982C176.788 312.8032 177.341 314.8064 178.0466 313.975L178.0486 313.977Z" stroke-width="1"></path><path id="vector_6" fill="#191919" d="M163.0888 319.7436H157.8876C154.801 319.7436 152.2984 317.241 152.2984 314.1546S154.801 308.5654 157.8876 308.5654H163.0888C163.5324 308.5654 163.8912 308.9244 163.8912 309.368V318.941C163.8912 319.3846 163.5324 319.7436 163.0888 319.7436Z" stroke-width="1"></path><path id="vector_7" fill="#191919" d="M171.1824 309.172L167.2604 312.2544C166.2186 313.0734 166.167 314.6332 167.1532 315.5182L171.1638 319.1206C171.4156 319.3474 171.818 319.168 171.818 318.8296V309.4816C171.818 309.1556 171.4404 308.972 171.1846 309.1742L171.1824 309.172Z" stroke-width="1"></path><path id="vector_8" fill="#191919" d="M227.7498 313.977C229.2146 312.2502 228.346 302.8608 219.5116 298.7326C216.0124 297.0964 211.587 296.7066 207.2772 298.1012C199.2062 300.7152 194.0606 309.3928 196.1836 318.1282C199.1462 330.3172 214.0896 335.0398 223.4026 326.9296C226.6934 324.0638 228.3192 320.474 228.3892 316.6674C228.3996 316.096 228.3768 315.5286 228.2366 315.0438C228.0178 314.2968 227.661 313.909 227.2462 314.3258C226.7016 314.8724 226.225 316.6818 225.9466 317.2822C223.607 323.5046 217.3618 328.0622 210.2894 326.88C202.3112 325.5452 197.2854 316.849 200.7534 308.9038C205.5338 297.9526 221.7768 298.4458 226.2188 311.982C226.4892 312.8032 227.042 314.8064 227.7476 313.975L227.7496 313.977Z" stroke-width="1"></path><path id="vector_9" fill="#191919" d="M212.5774 314.1338C211.3704 314.1338 210.3904 313.156 210.3904 311.947V307.2306C210.3904 306.0236 211.3684 305.0436 212.5774 305.0436C213.7864 305.0436 214.7642 306.0216 214.7642 307.2306V311.947C214.7642 313.1538 213.7864 314.1338 212.5774 314.1338Z" stroke-width="1"></path><path id="vector_10" fill="#191919" d="M218.7832 314.7838C218.4264 313.9936 217.1308 314.0246 216.5242 314.3836C215.835 314.8044 215.3874 315.1262 215.1212 315.4914C214.4652 316.7624 211.583 317.1338 210.1634 315.6152C209.4764 314.9076 209.6724 314.7178 208.975 314.2432C205.8742 312.1388 204.4238 317.4122 209.4228 319.8014C207.7538 320.1686 208.0838 322.5392 209.7136 322.5392H215.6618C217.271 322.5392 217.6238 320.2202 215.996 319.8096C217.8754 318.8584 219.6312 316.7128 218.7832 314.7838Z" stroke-width="1"></path><path id="vector_11" fill="#315467" d="M258.505 299.2236C250.2586 299.2236 243.574 305.9082 243.574 314.1546S250.2586 329.0854 258.505 329.0854S273.436 322.4008 273.436 314.1546S266.7514 299.2236 258.505 299.2236ZM267.8016 318.4706C266.8916 318.5098 264.8594 318.0414 264.0858 317.6494C261.4862 316.329 264.5418 313.6862 262.0392 312.5968C260.3762 311.8726 257.034 311.6498 255.3814 312.147C254.455 312.4256 254.0858 312.927 254.1084 313.8966C254.1414 315.3222 254.0568 316.3518 252.753 316.8304C251.8266 317.1708 249.6664 317.3008 248.8784 317.1482C248.1914 317.014 247.7622 316.6056 247.7642 315.9412C247.7684 314.8416 247.789 313.7378 248.2284 312.6918C249.7428 309.0978 254.1682 308.1032 258.0634 308.322C262.33 308.5612 267.2672 309.4876 268.8496 313.4572C269.2024 314.3422 269.32 315.2604 269.2086 316.2072C269.1074 317.0614 269.2952 318.4066 267.8036 318.4726L267.8016 318.4706Z" stroke-width="1"></path></g><g id="message 1"><path id="vector_12" fill="#315467" d="M117.3964 128.028C117.3756 115.7132 113.268 103.5922 100.5632 99.4556C90.6972 96.2432 60.895 96.4476 51.285 96.6682C40.9114 96.9056 29.1 96.171 19.3474 100.2044C4.8994 106.1814 2.3988 122.9424 4.7982 136.8356C5.8938 143.1756 8.9638 149.006 14.198 152.8682C20.377 157.4258 27.924 158.0964 35.372 158.969C52.529 160.9744 69.8698 160.275 87.0536 159.0082C88.5268 158.901 89.9956 158.7214 91.4544 158.5028C95.1308 163.118 100.916 169.5138 107.0806 172.9448C108.4608 173.7142 109.9854 172.2062 109.216 170.8258C107.157 167.139 104.45 161.3168 103.5546 154.9872C115.0114 149.5116 117.4148 140.5968 117.3922 128.024L117.3962 128.028ZM34.6334 149.5878C22.929 149.5878 13.4386 140.0994 13.4386 128.3952S22.927 107.2026 34.6312 107.2006C45.8774 107.2006 55.7538 117.178 55.6362 128.3932C55.5206 139.3278 46.777 149.588 34.6334 149.588Z" stroke-width="1"></path><path id="vector_13" fill="#315467" d="M46.8038 123.1674H39.8592V116.223C39.8592 115.8288 39.5394 115.5112 39.1474 115.5112H30.1192C29.725 115.5112 29.4074 115.831 29.4074 116.223V123.1674H22.4628C22.0688 123.1674 21.751 123.4872 21.751 123.8792V132.9076C21.751 133.3016 22.0708 133.6194 22.4628 133.6194H29.4074V140.564C29.4074 140.958 29.7272 141.2756 30.1192 141.2756H39.1474C39.5416 141.2756 39.8592 140.956 39.8592 140.564V133.6194H46.8038C47.1978 133.6194 47.5156 133.2996 47.5156 132.9076V123.8792C47.5156 123.4852 47.1958 123.1674 46.8038 123.1674Z" stroke-width="1"></path><path id="vector_14" fill="#191919" d="M100.4868 118.5872C99.905 117.2048 95.428 116.8478 93.9198 116.8478C66.8638 116.8478 67.654 117.0274 66.414 117.341C63.177 118.1622 64.1198 119.5588 65.5764 120.0252C68.9104 121.0938 69.158 120.8256 91.8526 120.8256C94.2376 120.8256 101.411 120.7844 100.4868 118.5872Z" stroke-width="1"></path><path id="vector_15" fill="#191919" d="M91.805 128.1432C91.3822 126.8186 88.2008 126.404 86.8102 126.404C66.8122 126.404 66.8824 126.567 65.892 126.897C65.5372 127.0146 64.7614 127.3036 64.4952 127.6192C64.0228 128.1782 64.1838 129.1294 65.2546 129.5812C67.9552 130.718 68.832 130.3818 85.236 130.3818C87.423 130.3818 92.4714 130.225 91.805 128.1432Z" stroke-width="1"></path><path id="vector_16" fill="#191919" d="M94.483 140.3472C66.9132 140.3472 67.7178 140.5268 66.4532 140.8404C63.1562 141.6616 64.1136 143.0582 65.599 143.5246C69.0012 144.5932 69.2446 144.325 92.3746 144.325C94.8894 144.325 97.3404 144.2528 99.0364 143.832C104.054 142.5878 100.0556 140.3472 94.483 140.3472Z" stroke-width="1"></path></g><g id="message 2"><path id="vector_17" fill="#315467" d="M395.3554 306.69C394.4702 301.5714 391.9944 296.8674 387.7692 293.75C382.7826 290.0714 376.69 289.5288 370.6802 288.8274C356.8324 287.2078 342.838 287.7732 328.9676 288.7944C327.7792 288.881 326.5928 289.0274 325.4148 289.2028C322.448 285.4788 317.779 280.3148 312.8028 277.546C311.6886 276.925 310.459 278.1424 311.08 279.2564C312.745 282.2356 314.9052 286.9498 315.6252 292.0664C306.3906 296.496 304.4636 303.6614 304.48 313.8018C304.4966 323.742 307.812 333.5232 318.0658 336.8614C321.829 338.087 325.8212 338.3924 329.7722 338.6214C339.1162 339.1618 348.4808 339.3248 357.837 339.1102C366.2094 338.9184 375.743 339.5126 383.614 336.257C395.2748 331.4312 397.2926 317.9054 395.3554 306.69Z" stroke-width="1"></path><path id="vector_18" fill="#191919" d="M328.656 314.7218C328.656 316.8448 330.3766 318.5634 332.4976 318.5634C334.5834 318.5634 336.3536 316.7994 336.3578 314.7218C336.366 309.8116 328.656 309.9746 328.656 314.7218Z" stroke-width="1"></path><path id="vector_19" fill="#191919" d="M348.3508 314.7218C348.3508 316.8448 350.0714 318.5634 352.1924 318.5634C354.2782 318.5634 356.0484 316.7994 356.0524 314.7218C356.0608 309.8116 348.3508 309.9746 348.3508 314.7218Z" stroke-width="1"></path><path id="vector_20" fill="#191919" d="M365.4686 314.7218C365.4686 316.8448 367.1894 318.5634 369.3102 318.5634C371.396 318.5634 373.1662 316.7994 373.1704 314.7218C373.1786 309.8116 365.4686 309.9746 365.4686 314.7218Z" stroke-width="1"></path></g><g id="person"><path id="vector_21" fill="#315467" d="M239.4456 90.4682S250.3824 81.6668 249.4478 72.0628C248.5132 62.4588 240.2462 66.1952 237.7126 63.5276C235.179 60.86 236.646 51.6584 227.1762 51.124C217.7064 50.5896 217.0708 55.3926 217.0708 55.3926S211.9708 47.2576 203.4356 49.7912C194.9004 52.3248 197.8342 55.2586 196.6334 57.9262C195.4326 60.5938 185.35 56.9936 182.0552 61.3944C178.7624 65.795 177.347 74.1982 182.0552 76.8638C186.7632 79.5314 181.1618 80.763 180.3614 84.681C179.5608 88.5988 184.0956 93.1336 184.0956 93.1336L190.6688 93.3772S189.6992 76.9566 193.4314 76.4636C197.1636 75.9704 215.9484 73.6968 215.9484 73.6968S232.662 73.5978 236.452 78.898C240.242 84.1982 236.221 89.0424 239.4416 90.466L239.4456 90.4682Z" stroke-width="1"></path><path id="vector_22" fill="#191919" d="M262.3548 191.8408C261.903 190.504 258.4822 190.1016 257.0712 190.1016C235.0388 190.1016 235.827 190.3162 234.9438 190.5948C234.5746 190.7102 233.7494 191.0012 233.4666 191.3168C232.9674 191.8738 233.1366 192.827 234.2712 193.2788C236.9018 194.327 236.9802 194.0794 255.4082 194.0794C257.6302 194.0794 263.0686 193.9452 262.3548 191.8408Z" stroke-width="1"></path><path id="vector_23" fill="#191919" d="M267.7376 211.575C267.5416 208.4928 266.8174 180.9864 264.8162 184.9148C263.5122 187.6236 263.638 205.724 263.6876 209.283C263.7268 212.2166 264.0878 214.1766 263.8754 217.3148C263.2708 224.3418 258.3646 225.4146 251.2076 225.6746C248.3482 225.7736 245.6166 225.9964 242.8148 225.6126C240.0296 225.2538 237.232 224.4636 234.7686 223.0214C228.6678 220.2072 229.7902 195.7236 230.1884 188.9956C230.6134 182.7174 230.5906 182.5586 230.9744 181.6798C231.6842 180.0292 233.3264 179.0658 234.8138 179.0224C237.9726 178.9996 264.4118 179.008 260.7702 176.9076C259.714 176.299 256.5904 176.0536 255.3772 175.9606L259.2972 164.0832C261.5646 164.7928 261.905 164.8012 262.2062 165.5212C262.4146 165.9936 262.299 166.3836 262.1836 166.7034C260.9684 170.056 260.2338 171.5868 260.7538 173.2394C261.022 174.0894 262.231 174.3968 262.9738 173.8232C263.7948 173.1898 264.3374 172.4266 264.6428 171.5766C266.0828 167.5906 265.957 167.931 266.0974 167.4482C266.743 165.022 265.5526 162.4142 263.2956 161.3186C262.755 161.0482 262.2352 160.9162 260.5042 160.4294L261.449 157.5698C261.5976 157.1222 261.3522 156.6394 260.9044 156.4928L256.772 155.1478C256.3324 155.0054 255.86 155.2364 255.7052 155.6718L248.606 175.5852C247.3042 175.5212 246.025 175.414 244.715 175.3666C234.3724 175.0922 234.1476 175.152 233.281 175.3644C230.079 176.1444 227.9972 178.2796 227.1328 180.9226C226.7202 182.111 226.681 183.1156 226.289 189.0658C225.7216 197.6588 224.752 219.8874 231.3272 225.4498C233.6688 227.4304 239.2208 229.7616 246.32 229.805C255.3134 229.7102 264.618 229.64 267.2238 221.0304C268.146 218.6352 267.917 214.0282 267.7354 211.5854L267.7376 211.575Z" stroke-width="1"></path><path id="vector_24" fill="#191919" d="M313.6982 222.0578C311.7898 205.0948 306.044 188.094 298.2452 174.3618C285.788 152.3996 261.4182 137.3324 237.5228 131.046C235.668 130.5384 234.1784 128.826 233.935 126.8496C233.6936 124.8462 234.3992 118.9106 234.391 116.0284C235.6846 113.4722 236.547 111.4318 237.5146 108.9518C239.4188 109.1478 241.942 108.4298 244.2694 106.245C249.0558 101.5328 248.5174 91.3098 242.427 89.682C241.3664 89.2984 239.5324 89.2426 238.9114 89.4118C239.161 81.448 239.1858 81.1922 239.1486 80.796C238.9114 77.3858 236.6068 75.991 233.6358 74.7078C226.0394 71.3304 216.6788 70.9322 208.6016 72.9004C204.5744 73.7546 199.0576 74.78 194.9416 74.8048C192.734 74.7986 192.0182 74.6314 190.5822 74.388C189.7302 74.3074 190.3696 75.8362 193.1488 76.579C198.1478 77.9654 206.7408 76.711 211.5892 75.9952C218.707 75.0316 226.0642 75.5764 232.5858 78.5886C233.966 79.259 235.2306 79.7274 235.1936 81.2624C234.9708 90.5588 234.8676 90.5404 234.9934 91.0664C235.3256 92.5932 236.904 93.798 238.6556 93.4308C241.678 93.0676 243.8588 93.9074 243.4998 98.5C243.279 101.2254 242.2412 103.4494 239.7654 104.6088C238.8784 105.0442 238.113 105.0256 237.8984 105.0216C236.6934 104.7966 234.651 105.4094 233.7328 107.7882C230.2998 116.6928 222.627 130.9118 213.2954 129.2366C208.3996 128.729 204.17 124.7348 201.3168 120.7262C198.024 116.0202 196.1052 111.4544 194.5538 106.6494C192.309 106.9052 191.7356 107.0682 190.2934 106.802C185.5234 106.082 181.459 98.8714 185.6534 95.3392C186.4848 94.6378 187.5784 94.4974 188.6636 94.6584C189.169 94.7038 191.3146 95.723 192.5752 93.7444C193.058 92.9852 192.9878 92.0382 192.8496 91.0354C192.4514 88.1306 191.9872 84.5366 191.5498 82.783C191.1908 81.3388 190.735 80.53 190.4152 81.4542C189.8086 83.212 190.0644 89.0982 190.0912 91.0128C190.0954 91.3202 190.0954 91.6504 189.8188 91.7142C189.6476 91.7534 189.5012 91.6172 189.3774 91.5822C184.2794 90.1112 180.1158 94.7368 180.1922 99.189C180.1654 103.8188 183.1694 107.8336 186.8788 109.6656C188.5582 110.5302 190.017 110.7384 191.8676 110.8106C195.7854 121.5556 203.5986 133.3734 215.0346 133.2848C222.076 133.231 227.7414 126.9836 231.5294 121.013C231.42 123.8868 231.3932 127.221 231.5356 127.9658C232.1732 131.3224 234.9584 133.0018 238.0696 133.9386C255.563 139.5772 272.683 149.7568 285.8376 163.8006C299.8752 178.7874 311.86 212.4374 310.1394 236.7948C308.4454 261.3174 295.3734 274.014 274.1828 276.5372C268.9032 277.1664 272.7078 276.9726 250.401 276.9704C248.9114 266.7826 245.53 255.1424 237.2278 248.5218C247.8612 245.1156 262.6582 239.9824 270.9066 233.302C274.2448 230.5992 275.6992 226.6586 276.6132 222.5282C280.917 201.6782 274.6346 162.5174 274.1004 169.7054C273.6032 176.4436 278.0574 217.4322 270.3268 228.4908C262.8522 237.3664 233.085 245.978 221.8988 249.0582C212.2968 251.701 212.2658 251.4288 211.3498 252.5058C210.44 253.5332 210.2998 255.161 210.9496 256.3638C211.5892 257.5502 212.8374 257.9876 213.7348 258.6848C218.3294 262.2726 221.5686 268.3816 223.6462 273.8304C225.534 278.683 225.1296 279.436 226.7616 280.416C228.0324 281.1814 226.8916 281.4434 268.0306 280.907C299.6442 280.4944 317.7606 260.1188 313.6962 222.064L313.6982 222.0578ZM215.2264 254.9856C214.8572 254.804 219.9242 253.8674 233.347 249.735C241.645 254.509 245.6866 267.3644 247.135 276.9602L228.8782 276.9478C226.4974 269.4792 221.8904 259.1182 215.2264 254.9856Z" stroke-width="1"></path><path id="vector_25" fill="#191919" d="M213.1138 102.5186C213.0766 102.3802 213.0704 100.0428 213.347 97.532C213.9246 92.2854 214.2794 92.242 213.5244 91.0496C212.7114 89.7682 210.4482 90.511 210.0582 92.8238C209.6746 95.0974 208.5232 102.139 209.5198 104.1918C210.9412 107.1256 213.1984 104.396 213.1158 102.5164L213.1138 102.5186Z" stroke-width="1"></path><path id="vector_26" fill="#191919" d="M222.8332 109.4824C221.7708 109.272 220.7206 110.6296 220.343 111.5126C220.4028 111.428 220.0584 112.0408 219.5694 112.7382C217.1844 116.1464 213.217 115.6368 212.7858 115.6926C209.6786 116.2764 211.1394 119.0122 213.9452 118.973C214.1474 118.9708 216.7326 118.977 219.0474 117.667C221.2344 116.429 223.9928 113.2932 223.8524 110.906C223.807 110.1406 223.6008 109.631 222.8354 109.4804L222.8332 109.4824Z" stroke-width="1"></path><path id="vector_27" fill="#191919" d="M222.043 91.4192C220.8196 91.4192 219.8602 92.95 219.8602 94.9018S220.8196 98.3844 222.043 98.3844S224.2258 96.8556 224.2258 94.9018S223.2664 91.4192 222.043 91.4192Z" stroke-width="1"></path><path id="vector_28" fill="#191919" d="M202.8908 91.4192C201.6674 91.4192 200.708 92.95 200.708 94.9018S201.6674 98.3844 202.8908 98.3844S205.0736 96.8556 205.0736 94.9018S204.1164 91.4192 202.8908 91.4192Z" stroke-width="1"></path><path id="vector_29" fill="#191919" d="M227.4092 82.3928C226.1404 80.932 221.9338 80.0552 221.1538 80.4142C219.687 81.091 220.5122 83.5502 221.6386 83.6554C223.7472 83.643 225.1522 85.1554 225.8866 85.1388C227.7106 85.0996 228.476 83.4078 227.4092 82.3928Z" stroke-width="1"></path><path id="vector_30" fill="#191919" d="M204.8612 80.1322C202.9218 79.963 199.2948 82.2532 198.9834 83.0474C198.3954 84.5536 200.6998 85.7502 201.5808 85.0446C202.9714 83.689 205.2512 83.5858 205.67 83.165C206.9532 81.8714 206.3364 80.124 204.8612 80.1322Z" stroke-width="1"></path><path id="vector_31" fill="#191919" d="M248.1646 143.5402C247.9706 142.9934 247.6034 142.719 247.1866 142.9872C246.6398 143.3484 246.254 144.2746 245.928 144.9246C244.4384 148.0544 240.6608 154.64 237.4816 158.9972C235.0326 162.323 229.7324 168.921 226.1652 170.9986C225.9486 171.1204 225.6968 171.2586 225.5648 171.2936C225.4802 171.3494 225.0966 170.912 225.0346 170.8336C222.2102 167.6914 219.3012 157.0704 217.6712 153.4082C225.5524 151.3512 237.6982 135.727 234.1208 135.4094C231.6304 135.17 224.7664 145.1598 218.7358 148.7126C216.6396 149.907 215.7566 149.74 215.3708 149.7956C214.9726 149.6802 214.6076 149.6718 214.1702 149.515C206.0392 146.6082 196.2022 133.6888 195.183 136.9176C195.0036 137.5034 195.3956 138.3288 195.7154 138.8672C197.9022 142.523 200.7288 145.1226 204.3454 148.04C206.4746 149.7028 209.1958 151.8878 212.9508 153.2452C209.784 160.2166 207.6672 168.9148 204.9026 171.2524C204.69 171.2276 203.8194 170.6664 203.5222 170.4498C198.6738 166.957 189.466 155.8716 184.2772 144.2788C183.9616 143.5506 183.3942 142.457 182.7526 143.0162C182.2472 143.4412 182.1172 144.677 182.2058 145.494C182.4968 148.8466 183.8068 151.9908 185.4512 154.8174C189.0886 160.9532 196.1012 170.225 201.7872 174.0336C202.567 174.4708 203.2954 175.0858 204.9954 175.226C207.6134 175.2818 209.493 171.9208 210.6194 169.5896L213.5924 172.546C214.3146 173.264 215.4492 173.3506 216.2724 172.7544L219.9696 170.0702C223.2418 176.5836 226.1612 176.2556 230.2894 172.8822C236.8172 167.549 248.406 153.1256 248.3234 144.6956C248.3152 144.2934 248.3048 143.8952 248.1686 143.5424L248.1646 143.5402Z" stroke-width="1"></path><path id="vector_32" fill="#191919" d="M214.5208 247.6884C216.0084 246.4814 216.258 236.964 216.258 235.0268C216.258 200.2648 216.9016 175.6122 214.0174 177.9518C212.5298 179.1588 212.2802 188.676 212.2802 190.6134C212.2802 224.9216 211.5726 250.0794 214.5208 247.6884Z" stroke-width="1"></path><path id="vector_33" fill="#191919" d="M180.6812 276.5908C181.7086 276.793 182.7876 275.6316 183.875 274.6288C185.8266 272.8318 187.6402 269.6732 193.613 265.5448C198.0508 262.477 203.1756 260.5108 203.7264 260.259C204.2382 259.9682 205.7608 259.0996 206.0846 258.528C206.4848 257.8224 206.0908 256.9332 204.7126 256.863C202.9982 256.7764 201.3084 257.0962 199.7632 257.7564C189.9612 261.9488 182.6102 269.1656 180.7678 272.8504C180.4254 273.5374 179.8064 275.2188 179.9364 275.8584C180.0044 276.1926 180.2624 276.5104 180.6792 276.593L180.6812 276.5908Z" stroke-width="1"></path><path id="vector_34" fill="#191919" d="M203.9514 293.294C205.0284 292.537 205.8866 291.6724 206.6046 290.7008C206.7592 290.4304 209.3052 287.0944 212.6372 284.4742C215.9712 281.854 219.8974 280.1106 220.312 279.8836C221.323 279.1986 222.5898 278.2724 221.9626 277.2242C221.222 275.9884 218.1478 276.6692 216.7738 277.3316C209.2228 280.9772 203.4252 287.4038 202.2514 290.4016C202.012 291.0102 201.6696 292.3904 201.88 292.9372C202.1338 293.5932 203.0746 293.911 203.9514 293.294Z" stroke-width="1"></path><path id="vector_35" fill="#191919" d="M197.4792 286.7766C197.634 286.5064 200.18 283.1702 203.512 280.55C206.846 277.9298 210.7722 276.1886 211.1868 275.9596C212.204 275.2726 213.4624 274.3442 212.8374 273.3002C212.0926 272.054 208.9958 272.7554 207.6486 273.4074C200.0458 277.084 194.2896 283.5066 193.126 286.4774C192.8806 287.1046 192.5464 288.4726 192.7548 289.013C193.518 290.9958 196.2188 288.4848 197.4794 286.7766Z" stroke-width="1"></path><path id="vector_36" fill="#191919" d="M186.852 284.3214C187.929 283.5642 188.7872 282.6978 189.5052 281.728C189.66 281.4578 192.2058 278.1218 195.5378 275.5016C198.872 272.8814 202.798 271.14 203.2128 270.911C204.2298 270.222 205.4884 269.2956 204.8632 268.2516C204.1184 267.0054 201.0218 267.707 199.6744 268.359C192.0718 272.0354 186.3156 278.458 185.152 281.429C184.9066 282.0562 184.5722 283.426 184.7806 283.9646C185.0324 284.6186 185.9732 284.9384 186.852 284.3214Z" stroke-width="1"></path><path id="vector_37" fill="#191919" d="M166.1896 167.5554C166.0844 164.665 163.5716 162.7174 161.8962 162.938C161.4094 163.0062 161.4464 163.2002 161.9952 163.559C163.4932 164.5226 164.4132 165.9916 164.176 167.8484C164.1142 168.3414 163.0702 177.999 162.7896 180.9638L130.5262 172.7442C133.2288 166.8456 135.1682 162.9608 135.7768 161.7518C136.2824 160.747 137.4996 160.155 138.6508 160.3448C144.277 161.2628 165.2426 165.0054 161.0504 162.8246C159.3936 161.9622 154.5886 160.7244 151.203 159.93C140.4168 157.3944 138.9314 156.9736 137.8358 157.0354C136.0286 157.087 134.2522 157.9576 133.0968 159.5072C130.1382 163.491 104.4026 215.33 104.9204 249.8506C105.0236 256.0502 106.115 262.8668 108.8694 268.848C112.618 276.9912 124.5596 279.7454 133.4992 279.0666C140.1446 278.5488 143.5942 276.8984 147.3634 273.688C155.7522 265.7222 156.6558 253.4692 158.977 242.322C162.7338 223.8384 164.9828 202.9408 165.4408 190.0148C165.5976 186.3424 166.2102 168.0588 166.1896 167.5554ZM156.1854 235.8974C153.6024 248.9964 152.839 256.3598 149.7176 263.4508C147.644 268.1278 144.1264 272.4626 139.0428 274.0594C131.304 276.43 118.0792 275.1632 113.3504 268.7304C112.748 267.6554 113.173 268.819 111.438 264.963C109.612 259.5142 108.4568 254.1522 108.9394 244.7938C110.1568 222.749 120.1238 195.967 129.1666 175.7482C138.7932 178.2012 161.0936 183.8564 162.478 184.203C161.1638 198.5582 159.6722 217.3188 156.1814 235.8974H156.1854Z" stroke-width="1"></path><path id="vector_38" fill="#191919" d="M123.0638 117.4846C122.3376 118.8236 124.9886 122.8364 125.9192 124.0434L132.1478 132.0876C134.3842 147.6478 134.3616 147.9902 135.028 149.7026C135.2054 150.1586 135.6406 151.2026 136.0058 151.5286C136.6082 152.067 137.5512 151.8174 137.807 150.2164C138.362 146.742 137.9946 145.6712 135.9192 130.5112C133.6228 127.528 128.7188 120.9836 126.8764 119.1474C125.8614 118.1366 123.7466 116.226 123.0638 117.4866V117.4846Z" stroke-width="1"></path><path id="vector_39" fill="#191919" d="M142.0262 123.1278C142.9876 122.3192 142.4428 120.5138 141.7702 119.4844C140.6954 117.838 134.7288 110.2828 133.8436 109.6886C133.46 109.4328 133.037 109.2532 132.5378 109.1584C131.6856 108.9954 130.8274 109.9094 130.9202 110.7882C131.0234 111.7724 131.3742 112.575 131.9106 113.2228C132.2426 113.5384 137.646 120.3778 137.9494 120.9678C138.9128 122.216 139.377 123.0082 140.65 123.4498C141.139 123.619 141.6712 123.427 142.0262 123.1278Z" stroke-width="1"></path><path id="vector_40" fill="#191919" d="M151.593 120.7224C152.643 120.0334 152.317 118.1744 151.7724 117.0748C150.9018 115.3108 145.8738 107.1016 145.0652 106.4084C144.7226 106.1154 144.3286 105.8844 143.8314 105.7276C143.0102 105.4656 142.0446 106.264 142.0324 107.1532C142.02 108.1414 142.2696 108.9812 142.7256 109.6888C143.0184 110.0416 147.5698 117.473 147.803 118.096C148.6116 119.4556 148.9914 120.2954 150.19 120.8814C150.6542 121.1082 151.203 120.9804 151.593 120.7246V120.7224Z" stroke-width="1"></path><path id="vector_41" fill="#191919" d="M167.576 151.265C172.478 146.9902 171.397 138.521 169.8702 132.278C169.0616 128.9728 168.7542 128.2982 169.8084 124.57C170.7058 121.3866 171.17 120.9244 171.4816 119.0078C171.5558 118.5498 171.7168 117.481 171.5868 117.0416C171.3536 116.2596 170.4088 115.9708 169.3792 117.1386C167.8814 118.8324 166.4764 121.108 165.5562 125.6346C164.9064 128.8304 165.2736 129.9362 166.0762 133.324C168.5746 143.8708 166.2762 145.7214 165.4222 150.3882C165.158 151.8262 166.2454 152.4286 167.5802 151.265H167.576Z" stroke-width="1"></path><path id="vector_42" fill="#191919" d="M160.4726 121.4156C161.6652 121.034 161.853 119.1112 161.5434 117.9124C161.234 115.8638 157.6834 106.8272 157.1016 106.1134C156.8086 105.7544 156.4558 105.4614 156.008 105.2282C155.2406 104.828 154.1574 105.4552 153.9882 106.3176C153.7984 107.279 153.8912 108.1394 154.2048 108.9068C157.768 117.6278 157.5058 119.4062 158.6056 120.7266C159.1152 121.3372 159.6288 121.688 160.4726 121.4156Z" stroke-width="1"></path><path id="vector_43" fill="#191919" d="M149.8062 147.238C151.075 146.912 151.3186 144.7272 151.0956 143.4376C151.0504 143.1756 150.2704 139.7446 148.8304 136.6108C147.3902 133.4768 145.4942 130.5988 145.195 130.3222C144.7824 129.9448 144.341 129.689 143.852 129.5156C142.9566 129.1978 142.0714 130.0974 142.1086 131.0134C142.1498 132.0512 142.4182 132.9342 142.8884 133.6996C144.3306 136.0454 146.4578 140.5308 146.9736 143.2356C147.2872 143.972 147.6234 147.7992 149.8062 147.238Z" stroke-width="1"></path></g></g></svg>