<svg viewBox="0 0 400 400" xmlns="http://www.w3.org/2000/svg" id="Waiting-2--Streamline-Brooklyn.svg" height="400" width="400"><desc>Waiting 2 Streamline Illustration: https://streamlinehq.com</desc><path d="M216.514 125.162a27 27 0 0 1 -6.452 3.4 209.56 209.56 0 0 0 27.236 -3.762c-2.866 -0.538 -12.364 -6.092 -14.334 -7.166a11.432 11.432 0 0 1 -2.508 3.942 18.384 18.384 0 0 1 -3.942 3.586Z" fill="#5dadc4" stroke-width="1"></path><path d="m198.058 99 10.742 -36.91a9.508 9.508 0 0 1 -4.122 -2.33 24.21 24.21 0 0 1 -3.582 -3.4 9.832 9.832 0 0 1 -1.614 -3.584c-3.224 0 -17.546 0.726 -25.624 11.826a141.352 141.352 0 0 0 -13.438 20.6s27.058 8.96 36.912 13.26c0.188 0.36 0.366 0.538 0.726 0.538Zm-7.706 -40.674a10.16 10.16 0 0 0 -4.122 2.15A40.244 40.244 0 0 0 179.96 66.2a23.704 23.704 0 0 1 -2.688 3.4 1.088 1.088 0 0 1 -1.8 -1.076 10.85 10.85 0 0 1 2.688 -4.122 30.2 30.2 0 0 1 7.166 -6.092A9.116 9.116 0 0 1 190 56.714c1.428 0 1.428 1.612 0.352 1.612Z" fill="#5dadc4" stroke-width="1"></path><path d="M236.94 64.956a11.638 11.638 0 0 1 -2.33 0.718c0.896 2.686 9.14 27.056 9.498 28.132C250.38 90.76 264 85.562 264 85.562a76.73 76.73 0 0 0 -5.376 -15.23 35.872 35.872 0 0 0 -12 -12.902 19.732 19.732 0 0 1 -9.684 7.526Z" fill="#5dadc4" stroke-width="1"></path><path d="M124.054 197.554a31.97 31.97 0 0 0 17.56 24c16.306 8.422 32.432 24.012 35.836 39.6 0 0 5.376 -12.544 14.156 -19.354s33.726 -21.298 38.884 -29.924c5.236 -8.756 4.3 -15.4 4.3 -15.4s-2.688 -6.276 -12.542 -5.734c-9.678 0.534 -54.474 0.36 -71.138 1.256a82.866 82.866 0 0 0 -27.056 5.556Z" fill="#5dadc4" stroke-width="1"></path><path d="M238.732 367.96c0 3.942 -35.478 7.706 -60.924 7.706s-61.28 -2.688 -61.28 -6.63L177.8 322.446Z" fill="#5dadc4" stroke-width="1"></path><path d="M218.126 44.708a36.526 36.526 0 0 0 4.3 0.896 1.342 1.342 0 0 0 0.716 -0.358 0.658 0.658 0 0 0 0.18 -0.538 0.982 0.982 0 0 0 -0.716 -1.074c-1.076 -0.36 -3.942 -0.538 -4.302 -0.718a1.184 1.184 0 0 0 -0.894 0.718 1.2 1.2 0 0 0 0.716 1.074Z" fill="#191919" stroke-width="1"></path><path d="M226.726 36.286a37.414 37.414 0 0 1 -1.254 -4.658 0.824 0.824 0 0 0 -1.612 0.178 13.078 13.078 0 0 0 2.15 7.348c0.358 0.538 1.434 1.074 1.972 0.358 0.746 -0.748 -0.932 -2.312 -1.256 -3.226Z" fill="#191919" stroke-width="1"></path><path d="M219.2 28.4a3.384 3.384 0 0 0 -3.224 0.538 0.96 0.96 0 0 0 0.896 1.612 6.136 6.136 0 0 1 1.8 -0.178 1.084 1.084 0 0 0 0.528 -1.972Z" fill="#191919" stroke-width="1"></path><path d="M231.924 27.506a1.884 1.884 0 0 0 -1.614 -0.896 2.564 2.564 0 0 0 -1.97 0.896 0.96 0.96 0 0 0 0.896 1.614c0.72 -0.162 3.224 0 2.688 -1.614Z" fill="#191919" stroke-width="1"></path><path d="M103.8 365.452v0.716c0 1.972 2.326 3.058 8.242 4.3 15.564 3.272 46.578 4.838 63.432 4.838 16.45 0 47.734 -1.538 63.432 -4.838 5.914 -1.242 8.242 -2.508 8.242 -4.3v-0.716L175.48 318.326Zm71.674 7.166c-11.578 0 -58.352 -1.776 -68.092 -6.27l68.27 -44.8 68.27 44.8c-10.536 4.518 -56.946 6.27 -68.442 6.27Z" fill="#191919" stroke-width="1"></path><path d="M175.838 288.58a0.9 0.9 0 0 0 0 -1.8c-1.076 0.188 -1.076 1.8 0 1.8Z" fill="#191919" stroke-width="1"></path><path d="M175.838 278.366a1.882 1.882 0 0 0 0 -3.762 1.882 1.882 0 1 0 0 3.762Z" fill="#191919" stroke-width="1"></path><path d="M175.838 299.87a1.524 1.524 0 0 0 0 -3.046 1.524 1.524 0 0 0 0 3.046Z" fill="#191919" stroke-width="1"></path><path d="M175.838 305.066a1.352 1.352 0 0 0 0 2.688 1.352 1.352 0 0 0 0 -2.688Z" fill="#191919" stroke-width="1"></path><path d="M263.46 379.07c-0.896 -53.778 -11 -70.7 -27.774 -83.86 -4.316 -3.384 -9.34 -6.6 -14.334 -9.854 -32.444 -21.162 -33.888 -27.108 0 -48.74 2.304 -1.472 4.478 -3.046 6.8 -4.478a16.428 16.428 0 0 0 -2.866 4.838c-2.758 6.892 -0.93 12.4 6.45 12.9 4.484 0 6.578 -1.09 9.856 0.18a30.824 30.824 0 0 1 7.346 4.838 16.24 16.24 0 0 0 8.78 3.762 8.876 8.876 0 0 0 4.838 -1.254 5.558 5.558 0 0 0 1.8 -4.3 11.274 11.274 0 0 0 -3.942 -7.884c-4.316 -4 -8.65 -4.878 -13.44 -13.26 0.238 -0.238 0.18 -0.416 0.18 -4.658a71.012 71.012 0 0 0 -0.18 -12.186c7.706 -10.4 12.722 -25.624 15.052 -52.322 0.18 0.716 0.538 1.254 0.718 1.972a101.764 101.764 0 0 1 3.4 20.426c2.634 23.89 2.258 24.086 3.046 27.236a8.296 8.296 0 0 0 -2.33 3.226 8.908 8.908 0 0 0 3.226 12c4.932 2.702 9.932 -1.362 13.8 -1.8 6.248 -0.694 9.558 3.4 20.964 3.4 3.274 0 7.354 -0.752 8.064 -3.942a4.028 4.028 0 0 0 -0.538 -3.942c-2.482 -3.97 -7.732 -3.75 -19.71 -7.884a8.186 8.186 0 0 1 -5.914 -5.2c0 -0.18 0 -0.18 -0.18 -0.36a254.26 254.26 0 0 0 -1.97 -30.282c-1.06 -8.582 -1.852 -17.424 -4.838 -25.624 -7.57 -20.78 -22.728 -21.68 -36.554 -27.056 6.638 -0.256 15.11 -3.034 19 -8.422 3.384 -4.696 3.584 -10.186 3.584 -15.948a32.986 32.986 0 0 0 -1.614 -9.676c-0.34 -0.902 -1.8 -0.896 -1.8 0.18a94.966 94.966 0 0 1 0.9 14.904 15.696 15.696 0 0 1 -7.526 13.08 27.374 27.374 0 0 1 -25.622 0.718c-1.302 -0.69 -1.986 1.158 -1.076 1.612a23.308 23.308 0 0 0 8.242 3.226 259.884 259.884 0 0 1 -27.236 3.762 27 27 0 0 0 6.452 -3.4 17.532 17.532 0 0 0 6.63 -7.526c2.186 -4.374 1.924 -10.272 1.97 -14.872 0.234 -23.386 -1.986 -30.046 -1.076 -40.676a10.828 10.828 0 0 1 1.614 -5.376c3.046 -3.584 9.346 -1.228 12.184 -4.48a5.862 5.862 0 0 0 -1.254 -8.42 48.986 48.986 0 0 0 0.18 -8.78c-0.2 -3.226 -0.286 -6.462 -0.718 -9.498 -0.152 -1.078 -1.97 -1.254 -1.8 0 0.18 3.4 0.358 6.8 0.358 10.214a27.66 27.66 0 0 1 -1.074 10.214 11.446 11.446 0 0 1 -3.4 4.838 11.2 11.2 0 0 1 -6.272 1.97c-1.8 0.16 -3.584 0.18 -5.556 0.18a7.766 7.766 0 0 1 -4.838 -1.254 9.164 9.164 0 0 1 -2.508 -7.884c0.18 -0.718 -0.896 -1.256 -1.434 -0.718 -4.658 -1.8 -1.8 -6.45 2.868 -4.48 1.074 0.538 0.336 -2.326 0.18 -3.4 -0.21 -1.43 -0.896 -7.168 0 -8.422 0.894 -1.074 3.05 -2.83 8.062 -3.584 3.4 -0.512 11.488 0.75 15.052 -1.432 4.178 -2.56 3.824 -8.498 -3.046 -10.932 -6.4 -2.268 -9.762 1.342 -13.8 5.556a26.752 26.752 0 0 1 -6.092 4.48 14.942 14.942 0 0 0 -5.734 5.374c-1.464 3.752 -0.716 5.914 -0.178 10.572a3.584 3.584 0 0 0 -1.8 1.434 4.382 4.382 0 0 0 0.358 4.66s-1.434 1.97 -1.614 2.15a8.336 8.336 0 0 0 3.942 11.468c0.896 0.358 1.614 -0.896 0.896 -1.614a8.66 8.66 0 0 1 -3.582 -5.2 7.824 7.824 0 0 1 1.626 -5.56 5.018 5.018 0 0 0 1.612 1.074 7.972 7.972 0 0 0 0.538 6.094c1.4 2.522 4.106 3.248 6.272 4.658 3.914 2.55 4.828 5.376 5.554 10.034 1.366 8.762 1.434 23.892 1.434 31.716 0 8.45 0.658 18.176 -5.018 23.474a24.818 24.818 0 0 1 -20.068 6.63 29.956 29.956 0 0 1 -19 -11.29 26.2 26.2 0 0 1 -4.838 -19.888 14.6 14.6 0 0 0 0.358 -2.688c0.18 -0.896 -1.434 -1.254 -1.8 -0.538 -2.28 4.562 -2.446 13.358 2.51 22.04a32.924 32.924 0 0 0 17.56 13.976 110.084 110.084 0 0 1 -17.382 -1.434v4.122c-39.062 0 -81.2 3.176 -86.726 8.96a2.018 2.018 0 0 0 -0.716 1.97c1.8 53.756 11.17 70.7 27.952 83.86 13.44 10.536 39.242 22.922 39.242 34.224 0 10.676 -23.156 22.212 -39.242 34.224 -16.886 12.61 -27.236 30.082 -28.132 83.86 -0.036 2.15 2.318 3.63 7.884 5.016 31.412 7.822 129.448 7.836 160.91 0 5.58 -1.394 7.934 -2.874 7.898 -5.024Zm-87.8 -116.83a50.486 50.486 0 0 0 -13.26 -20.068c-16.742 -16.19 -47.978 -26.12 -51.964 -46.4a30.466 30.466 0 0 0 3.226 1.076c16.4 4.502 80.27 6.528 113.426 1.8 0.536 5.016 1.254 10.034 1.79 15.05 -13.14 10.932 -27.222 16.302 -39.78 28.302a50.324 50.324 0 0 0 -13.44 20.24Zm99.27 -112.17c1.09 1.91 2.738 6.966 2.33 8.6a0.88 0.88 0 0 1 -1.614 0.18 52.128 52.128 0 0 0 -2.508 -7.706 23.352 23.352 0 0 0 -4.48 -6.8 0.76 0.76 0 0 1 1.076 -1.076 19.706 19.706 0 0 1 5.194 6.802Zm-40.856 19.89c-0.522 -1.262 -0.718 -2.688 -1.256 -3.942a46 46 0 0 0 -19 -25.446c-0.886 -0.556 0 -1.79 0.716 -1.254a42.4 42.4 0 0 1 16.126 16.306 39.574 39.574 0 0 1 3.226 6.63 25.85 25.85 0 0 1 1.972 7.348c-0.172 0.716 -1.416 1.248 -1.784 0.358Zm-6.094 -25.086a74.462 74.462 0 0 1 16.666 2.328c-2.688 0.36 -12.364 1.434 -13.8 1.614a22.088 22.088 0 0 0 -2.866 -3.942Zm-52.68 -8.78c1.074 4.83 1.766 10.15 5.734 13.438a9.09 9.09 0 0 0 3.046 1.434 639.312 639.312 0 0 1 -67.552 -2.688C93.78 145.864 90.366 143.26 90 142.724c0.358 -0.538 3.578 -3.288 25.624 -5.556 16.122 -1.658 37.27 -2.508 59.49 -2.688a5 5 0 0 0 0.186 1.614Zm50.9 56.98c0.166 1.078 0.178 1.972 0.358 3.046 -1.614 0.18 -3.4 0.348 -5.376 0.538 -41.53 4 -101.966 1.428 -110.916 -3.942 9.976 -5.986 79.49 -7.916 115.574 -3.4a27.018 27.018 0 0 0 0.36 3.758Zm9.676 -146.754a2.888 2.888 0 0 1 0.896 1.972 3.69 3.69 0 0 1 -0.896 2.688 3.762 3.762 0 0 1 -2.33 0.896c-0.538 0.178 -0.896 0.178 -1.434 0.358a12.926 12.926 0 0 0 3.754 -5.914Zm-15.77 187.968c-13.4 8.842 -25.982 17.2 -25.982 26.518 0 12.906 24.934 24.454 40.138 36.376 13.568 10.636 24.908 23.832 26.878 81.708 -0.178 0.358 -2.508 3.234 -25.624 5.556 -37.316 3.746 -88.8 3.412 -120.054 0 -23.114 -2.524 -25.444 -5.2 -25.624 -5.556 1.972 -57.876 13.172 -71.25 26.878 -81.708 17.048 -13 40.138 -23.694 40.138 -36.376 0 -13 -25.6 -25.028 -40.138 -36.374 -13.2 -10.302 -24.548 -23.474 -26.698 -78.484a22.4 22.4 0 0 0 5.554 1.8c25.352 5.85 74.068 6.086 100.344 5.376a42.148 42.148 0 0 1 13.082 4.658c8.066 5.096 14.436 14.134 16.126 28.492 -0.716 -0.18 -1.612 -0.18 -2.33 -0.36 -27.6 -3.108 -87.52 -3.2 -109.482 2.33 -4.468 1.124 -6.272 2.33 -6.272 4.122 0.718 12.722 11.308 21.834 20.428 28.312 16.4 11.65 42.618 22.464 46.768 46.946h2.688c1.8 -10.572 8.428 -18.8 13.8 -24.012 9.588 -9.29 20.042 -13.614 38.526 -27.056 0.358 3.046 1.254 10.034 1.254 10.4 -0.194 0.342 -8.25 5.908 -10.408 7.332Zm35.3 9.676a15.954 15.954 0 0 1 5.914 5.734c1.214 2.426 1.112 5.548 -1.434 5.912 -2.688 0.718 -5.554 -0.716 -7.884 -2.15 -3.366 -2.33 -6.572 -5.6 -10.93 -6.63 -5.326 -1.256 -9.028 1.084 -12.364 -0.896 -2.486 -1.474 -1.948 -5 -1.254 -7.346a14.678 14.678 0 0 1 3.942 -6.272c0.716 0.18 12.184 -0.716 13.08 -0.896a26.506 26.506 0 0 0 10.924 12.544Zm-8.062 -33.15c-1.088 -20.092 -3.342 -42.732 -14.514 -59.49 5.058 -0.562 13.416 -1.536 17.38 -2.33 0.896 0.358 1.612 0.896 2.508 1.254a23.686 23.686 0 0 1 7.884 7.886c-2.338 27.772 -7.176 43.004 -13.268 52.68Zm63.072 14.514c-0.536 1.074 -1.97 1.254 -2.866 1.434a76.084 76.084 0 0 1 -14.694 -1.8 20.8 20.8 0 0 0 -9.676 -1.254c-2.872 0.508 -5.376 2.15 -8.242 2.508a5.816 5.816 0 0 1 -5.554 -8.422 21.504 21.504 0 0 1 2.866 -4.658 51 51 0 0 0 12.902 -3.046c1.254 4.658 7.362 6.216 11.468 7.524 3.238 1.034 12.364 3.942 13.26 5.018a2.366 2.366 0 0 1 0.52 2.696Z" fill="#191919" stroke-width="1"></path><path d="M192.144 129.104a35.512 35.512 0 0 1 -9.676 -5.2A28.708 28.708 0 0 1 171.18 106v20.954c1.074 0.18 2.33 0.526 3.582 0.718a116.442 116.442 0 0 0 17.382 1.432Z" fill="#5dadc4" stroke-width="1"></path><path d="M218.126 35.57c0 0.896 0.538 1.8 1.254 1.8s1.254 -0.718 1.254 -1.8c0 -0.896 -0.538 -1.8 -1.254 -1.8s-1.254 0.724 -1.254 1.8Z" fill="#191919" stroke-width="1"></path><path d="M230.49 32.166c-0.718 0 -1.254 0.716 -1.254 1.8 0 0.896 0.536 1.79 1.254 1.79s1.254 -0.716 1.254 -1.79c0 -0.904 -0.544 -1.8 -1.254 -1.8Z" fill="#191919" stroke-width="1"></path><path d="M204.508 59.94a12.376 12.376 0 0 0 3.046 1.97C195.088 106.574 195.366 105.4 195.2 106.886a1.108 1.108 0 1 0 2.15 0.538c0.892 -2.518 12.312 -45.308 12.364 -45.514a1.134 1.134 0 0 0 -0.18 -1.612 14.634 14.634 0 0 1 -3.582 -2.15c-2.908 -2.422 -4.184 -3 -4.66 -6.81a37.558 37.558 0 0 0 -0.358 -4.48 0.654 0.654 0 0 0 -1.254 0 10.894 10.894 0 0 0 0 5.914 12.942 12.942 0 0 0 4.828 7.168Z" fill="#191919" stroke-width="1"></path><path d="M239.09 61.552a53.342 53.342 0 0 1 -5.734 2.866c-0.536 0 -1.254 0.36 -0.896 1.076 1.85 6.128 10.838 36.164 14.694 41.75 0.734 1.064 2.508 0.358 1.97 -0.896 -1.712 -6 2.066 8.524 -14.334 -40.674a23.75 23.75 0 0 0 9.138 -4.838 23.83 23.83 0 0 0 2.868 -3.4c1.454 -2.108 2.868 -7.166 2.328 -8.242a0.97 0.97 0 0 0 -1.79 -0.18c-1.272 1.902 0.718 7.092 -8.244 12.538Z" fill="#191919" stroke-width="1"></path><path d="M239.986 56.892a8.942 8.942 0 0 0 5.018 -8.42 7.8 7.8 0 0 0 -2.33 -5.376c-0.712 -0.544 -1.8 0.178 -1.254 0.896a14.132 14.132 0 0 1 0.896 1.612 6.646 6.646 0 0 1 0.716 2.688 6.142 6.142 0 0 1 -1.8 5.2 20.566 20.566 0 0 0 -1.97 1.972c-0.53 0.892 0.012 1.624 0.724 1.428Z" fill="#191919" stroke-width="1"></path></svg>